<svg width="406" height="190" viewBox="0 0 406 190" fill="none" xmlns="http://www.w3.org/2000/svg">
<rect width="406" height="190" fill="white"/>
<rect x="293" y="136" width="82" height="31" rx="10" fill="black"/>
<path d="M303.335 146.273L305.445 152.903H305.526L307.639 146.273H309.685L306.676 155H304.298L301.286 146.273H303.335ZM310.701 155V148.455H312.516V155H310.701ZM311.613 147.611C311.343 147.611 311.112 147.521 310.918 147.342C310.728 147.161 310.633 146.943 310.633 146.69C310.633 146.44 310.728 146.226 310.918 146.047C311.112 145.865 311.343 145.774 311.613 145.774C311.883 145.774 312.113 145.865 312.303 146.047C312.496 146.226 312.593 146.44 312.593 146.69C312.593 146.943 312.496 147.161 312.303 147.342C312.113 147.521 311.883 147.611 311.613 147.611ZM316.953 155.128C316.28 155.128 315.701 154.991 315.215 154.719C314.732 154.443 314.36 154.054 314.098 153.551C313.837 153.045 313.706 152.447 313.706 151.757C313.706 151.084 313.837 150.493 314.098 149.984C314.36 149.476 314.728 149.08 315.202 148.795C315.679 148.511 316.239 148.369 316.881 148.369C317.313 148.369 317.715 148.439 318.087 148.578C318.462 148.714 318.789 148.92 319.067 149.196C319.348 149.472 319.567 149.818 319.723 150.236C319.88 150.651 319.958 151.136 319.958 151.693V152.192H314.431V151.067H318.249C318.249 150.805 318.192 150.574 318.078 150.372C317.965 150.17 317.807 150.013 317.605 149.899C317.407 149.783 317.175 149.724 316.911 149.724C316.635 149.724 316.391 149.788 316.178 149.916C315.968 150.041 315.803 150.21 315.684 150.423C315.564 150.634 315.503 150.868 315.5 151.126V152.196C315.5 152.52 315.56 152.8 315.679 153.036C315.801 153.271 315.973 153.453 316.195 153.581C316.417 153.709 316.679 153.773 316.983 153.773C317.185 153.773 317.37 153.744 317.537 153.688C317.705 153.631 317.848 153.545 317.968 153.432C318.087 153.318 318.178 153.179 318.24 153.014L319.919 153.125C319.834 153.528 319.659 153.881 319.395 154.182C319.134 154.48 318.796 154.713 318.381 154.881C317.969 155.045 317.493 155.128 316.953 155.128ZM322.387 155L320.605 148.455H322.442L323.456 152.852H323.516L324.573 148.455H326.375L327.449 152.827H327.505L328.502 148.455H330.334L328.557 155H326.635L325.51 150.884H325.429L324.304 155H322.387ZM334.114 155V146.273H335.959V153.479H339.701V155H334.114ZM343.846 155.128C343.184 155.128 342.612 154.987 342.129 154.706C341.648 154.422 341.278 154.027 341.016 153.521C340.755 153.013 340.624 152.423 340.624 151.753C340.624 151.077 340.755 150.486 341.016 149.98C341.278 149.472 341.648 149.077 342.129 148.795C342.612 148.511 343.184 148.369 343.846 148.369C344.508 148.369 345.079 148.511 345.559 148.795C346.042 149.077 346.414 149.472 346.675 149.98C346.937 150.486 347.067 151.077 347.067 151.753C347.067 152.423 346.937 153.013 346.675 153.521C346.414 154.027 346.042 154.422 345.559 154.706C345.079 154.987 344.508 155.128 343.846 155.128ZM343.854 153.722C344.156 153.722 344.407 153.636 344.609 153.466C344.81 153.293 344.962 153.057 345.065 152.759C345.17 152.46 345.222 152.121 345.222 151.74C345.222 151.359 345.17 151.02 345.065 150.722C344.962 150.423 344.81 150.187 344.609 150.014C344.407 149.841 344.156 149.754 343.854 149.754C343.55 149.754 343.295 149.841 343.087 150.014C342.883 150.187 342.728 150.423 342.623 150.722C342.521 151.02 342.469 151.359 342.469 151.74C342.469 152.121 342.521 152.46 342.623 152.759C342.728 153.057 342.883 153.293 343.087 153.466C343.295 153.636 343.55 153.722 343.854 153.722ZM351.197 157.591C350.609 157.591 350.104 157.51 349.684 157.348C349.266 157.189 348.934 156.972 348.687 156.696C348.44 156.42 348.279 156.111 348.205 155.767L349.884 155.541C349.935 155.672 350.016 155.794 350.127 155.908C350.238 156.021 350.384 156.112 350.566 156.18C350.751 156.251 350.975 156.287 351.239 156.287C351.634 156.287 351.96 156.19 352.215 155.997C352.474 155.807 352.603 155.487 352.603 155.038V153.841H352.526C352.447 154.023 352.327 154.195 352.168 154.357C352.009 154.518 351.805 154.651 351.555 154.753C351.305 154.855 351.006 154.906 350.66 154.906C350.168 154.906 349.721 154.793 349.317 154.565C348.917 154.335 348.597 153.984 348.359 153.513C348.123 153.038 348.005 152.439 348.005 151.714C348.005 150.973 348.126 150.354 348.367 149.857C348.609 149.359 348.93 148.987 349.33 148.74C349.734 148.493 350.175 148.369 350.656 148.369C351.022 148.369 351.329 148.432 351.576 148.557C351.823 148.679 352.022 148.832 352.173 149.017C352.326 149.199 352.444 149.378 352.526 149.554H352.594V148.455H354.397V155.064C354.397 155.621 354.261 156.087 353.988 156.462C353.715 156.837 353.337 157.118 352.854 157.305C352.374 157.496 351.822 157.591 351.197 157.591ZM351.235 153.543C351.528 153.543 351.775 153.47 351.977 153.325C352.181 153.178 352.337 152.967 352.445 152.695C352.556 152.419 352.612 152.089 352.612 151.706C352.612 151.322 352.558 150.99 352.45 150.709C352.342 150.425 352.185 150.205 351.981 150.048C351.776 149.892 351.528 149.814 351.235 149.814C350.937 149.814 350.685 149.895 350.481 150.057C350.276 150.216 350.121 150.437 350.016 150.722C349.911 151.006 349.859 151.334 349.859 151.706C349.859 152.084 349.911 152.411 350.016 152.686C350.124 152.959 350.279 153.17 350.481 153.321C350.685 153.469 350.937 153.543 351.235 153.543ZM355.842 155V148.455H357.657V155H355.842ZM356.754 147.611C356.484 147.611 356.252 147.521 356.059 147.342C355.869 147.161 355.773 146.943 355.773 146.69C355.773 146.44 355.869 146.226 356.059 146.047C356.252 145.865 356.484 145.774 356.754 145.774C357.023 145.774 357.254 145.865 357.444 146.047C357.637 146.226 357.734 146.44 357.734 146.69C357.734 146.943 357.637 147.161 357.444 147.342C357.254 147.521 357.023 147.611 356.754 147.611ZM362.069 155.128C361.398 155.128 360.821 154.986 360.338 154.702C359.858 154.415 359.489 154.017 359.23 153.509C358.975 153 358.847 152.415 358.847 151.753C358.847 151.082 358.976 150.494 359.235 149.989C359.496 149.48 359.867 149.084 360.347 148.8C360.827 148.513 361.398 148.369 362.06 148.369C362.631 148.369 363.131 148.473 363.56 148.68C363.989 148.888 364.328 149.179 364.578 149.554C364.828 149.929 364.966 150.369 364.992 150.875H363.279C363.23 150.548 363.103 150.286 362.895 150.087C362.691 149.885 362.422 149.784 362.09 149.784C361.809 149.784 361.563 149.861 361.353 150.014C361.145 150.165 360.983 150.385 360.867 150.675C360.75 150.964 360.692 151.315 360.692 151.727C360.692 152.145 360.749 152.5 360.863 152.793C360.979 153.085 361.142 153.308 361.353 153.462C361.563 153.615 361.809 153.692 362.09 153.692C362.297 153.692 362.483 153.649 362.648 153.564C362.816 153.479 362.953 153.355 363.061 153.193C363.172 153.028 363.245 152.831 363.279 152.601H364.992C364.963 153.101 364.827 153.541 364.583 153.922C364.341 154.3 364.007 154.595 363.581 154.808C363.155 155.021 362.651 155.128 362.069 155.128Z" fill="white"/>
<path d="M152 32C152 26.4772 156.477 22 162 22H245C250.523 22 255 26.4772 255 32V46C255 51.5228 250.523 56 245 56H162C156.477 56 152 51.5228 152 46V32Z" fill="black"/>
<path d="M169.149 34.2727H170.994V39.9403C170.994 40.5767 170.842 41.1335 170.538 41.6108C170.237 42.0881 169.815 42.4602 169.273 42.7273C168.73 42.9915 168.098 43.1236 167.376 43.1236C166.652 43.1236 166.018 42.9915 165.476 42.7273C164.933 42.4602 164.511 42.0881 164.21 41.6108C163.909 41.1335 163.759 40.5767 163.759 39.9403V34.2727H165.604V39.7827C165.604 40.1151 165.676 40.4105 165.821 40.669C165.969 40.9276 166.176 41.1307 166.443 41.2784C166.71 41.4261 167.021 41.5 167.376 41.5C167.734 41.5 168.045 41.4261 168.31 41.2784C168.577 41.1307 168.783 40.9276 168.928 40.669C169.075 40.4105 169.149 40.1151 169.149 39.7827V34.2727ZM172.478 45.4545V36.4545H174.268V37.554H174.349C174.429 37.3778 174.544 37.1989 174.694 37.017C174.848 36.8324 175.047 36.679 175.291 36.5568C175.538 36.4318 175.845 36.3693 176.211 36.3693C176.689 36.3693 177.129 36.4943 177.532 36.7443C177.936 36.9915 178.258 37.3651 178.5 37.8651C178.741 38.3622 178.862 38.9858 178.862 39.7358C178.862 40.4659 178.744 41.0824 178.508 41.5852C178.275 42.0852 177.957 42.4645 177.554 42.723C177.153 42.9787 176.704 43.1065 176.207 43.1065C175.855 43.1065 175.555 43.0483 175.308 42.9318C175.064 42.8153 174.863 42.669 174.707 42.4929C174.551 42.3139 174.431 42.1335 174.349 41.9517H174.294V45.4545H172.478ZM174.255 39.7273C174.255 40.1165 174.309 40.456 174.417 40.7457C174.525 41.0355 174.681 41.2614 174.886 41.4233C175.091 41.5824 175.339 41.6619 175.632 41.6619C175.927 41.6619 176.177 41.581 176.382 41.419C176.586 41.2543 176.741 41.027 176.846 40.7372C176.954 40.4446 177.008 40.108 177.008 39.7273C177.008 39.3494 176.956 39.017 176.85 38.7301C176.745 38.4432 176.591 38.2187 176.386 38.0568C176.181 37.8949 175.93 37.8139 175.632 37.8139C175.336 37.8139 175.086 37.892 174.882 38.0483C174.68 38.2045 174.525 38.4261 174.417 38.7131C174.309 39 174.255 39.3381 174.255 39.7273ZM182.484 43.1065C181.987 43.1065 181.537 42.9787 181.133 42.723C180.733 42.4645 180.414 42.0852 180.179 41.5852C179.946 41.0824 179.829 40.4659 179.829 39.7358C179.829 38.9858 179.95 38.3622 180.191 37.8651C180.433 37.3651 180.754 36.9915 181.154 36.7443C181.558 36.4943 182 36.3693 182.48 36.3693C182.846 36.3693 183.152 36.4318 183.396 36.5568C183.643 36.679 183.842 36.8324 183.993 37.017C184.146 37.1989 184.262 37.3778 184.342 37.554H184.397V34.2727H186.208V43H184.419V41.9517H184.342C184.257 42.1335 184.136 42.3139 183.98 42.4929C183.826 42.669 183.626 42.8153 183.379 42.9318C183.135 43.0483 182.836 43.1065 182.484 43.1065ZM183.059 41.6619C183.352 41.6619 183.599 41.5824 183.801 41.4233C184.005 41.2614 184.162 41.0355 184.27 40.7457C184.38 40.456 184.436 40.1165 184.436 39.7273C184.436 39.3381 184.382 39 184.274 38.7131C184.166 38.4261 184.01 38.2045 183.805 38.0483C183.6 37.892 183.352 37.8139 183.059 37.8139C182.761 37.8139 182.51 37.8949 182.305 38.0568C182.1 38.2187 181.946 38.4432 181.841 38.7301C181.735 39.017 181.683 39.3494 181.683 39.7273C181.683 40.108 181.735 40.4446 181.841 40.7372C181.949 41.027 182.103 41.2543 182.305 41.419C182.51 41.581 182.761 41.6619 183.059 41.6619ZM189.567 43.1236C189.15 43.1236 188.778 43.0511 188.451 42.9062C188.124 42.7585 187.866 42.5412 187.675 42.2543C187.488 41.9645 187.394 41.6037 187.394 41.1719C187.394 40.8082 187.461 40.5028 187.594 40.2557C187.728 40.0085 187.91 39.8097 188.14 39.6591C188.37 39.5085 188.631 39.3949 188.924 39.3182C189.219 39.2415 189.529 39.1875 189.853 39.1562C190.234 39.1165 190.54 39.0795 190.773 39.0455C191.006 39.0085 191.175 38.9545 191.281 38.8835C191.386 38.8125 191.438 38.7074 191.438 38.5682V38.5426C191.438 38.2727 191.353 38.0639 191.183 37.9162C191.015 37.7685 190.776 37.6946 190.467 37.6946C190.14 37.6946 189.88 37.767 189.687 37.9119C189.494 38.054 189.366 38.233 189.303 38.4489L187.624 38.3125C187.71 37.9148 187.877 37.571 188.127 37.2812C188.377 36.9886 188.7 36.7642 189.094 36.608C189.492 36.4489 189.952 36.3693 190.475 36.3693C190.839 36.3693 191.187 36.4119 191.519 36.4972C191.854 36.5824 192.151 36.7145 192.41 36.8935C192.671 37.0724 192.877 37.3026 193.028 37.5838C193.178 37.8622 193.254 38.196 193.254 38.5852V43H191.532V42.0923H191.481C191.376 42.2969 191.235 42.4773 191.059 42.6335C190.883 42.7869 190.671 42.9077 190.424 42.9957C190.177 43.081 189.891 43.1236 189.567 43.1236ZM190.087 41.8707C190.354 41.8707 190.59 41.8182 190.795 41.7131C190.999 41.6051 191.16 41.4602 191.276 41.2784C191.393 41.0966 191.451 40.8906 191.451 40.6605V39.9659C191.394 40.0028 191.316 40.0369 191.217 40.0682C191.12 40.0966 191.011 40.1236 190.888 40.1491C190.766 40.1719 190.644 40.1932 190.522 40.2131C190.4 40.2301 190.289 40.2457 190.19 40.2599C189.977 40.2912 189.79 40.3409 189.631 40.4091C189.472 40.4773 189.349 40.5696 189.261 40.6861C189.173 40.7997 189.129 40.9418 189.129 41.1122C189.129 41.3594 189.218 41.5483 189.397 41.679C189.579 41.8068 189.809 41.8707 190.087 41.8707ZM198.143 36.4545V37.8182H194.202V36.4545H198.143ZM195.097 34.8864H196.912V40.9886C196.912 41.1562 196.938 41.2869 196.989 41.3807C197.04 41.4716 197.111 41.5355 197.202 41.5724C197.295 41.6094 197.403 41.6278 197.526 41.6278C197.611 41.6278 197.696 41.6207 197.781 41.6065C197.866 41.5895 197.932 41.5767 197.977 41.5682L198.263 42.919C198.172 42.9474 198.044 42.9801 197.879 43.017C197.714 43.0568 197.514 43.081 197.278 43.0895C196.841 43.1065 196.457 43.0483 196.128 42.9148C195.801 42.7812 195.547 42.5739 195.365 42.2926C195.183 42.0114 195.094 41.6562 195.097 41.2273V34.8864ZM202.239 43.1278C201.565 43.1278 200.986 42.9915 200.5 42.7188C200.017 42.4432 199.645 42.054 199.384 41.5511C199.122 41.0455 198.991 40.4474 198.991 39.7571C198.991 39.0838 199.122 38.4929 199.384 37.9844C199.645 37.4759 200.013 37.0795 200.487 36.7955C200.964 36.5114 201.524 36.3693 202.166 36.3693C202.598 36.3693 203 36.4389 203.372 36.5781C203.747 36.7145 204.074 36.9205 204.352 37.196C204.634 37.4716 204.852 37.8182 205.009 38.2358C205.165 38.6506 205.243 39.1364 205.243 39.6932V40.1918H199.716V39.0668H203.534C203.534 38.8054 203.477 38.5739 203.364 38.3722C203.25 38.1705 203.092 38.0128 202.891 37.8991C202.692 37.7827 202.46 37.7244 202.196 37.7244C201.92 37.7244 201.676 37.7884 201.463 37.9162C201.253 38.0412 201.088 38.2102 200.969 38.4233C200.849 38.6335 200.788 38.8679 200.786 39.1264V40.196C200.786 40.5199 200.845 40.7997 200.964 41.0355C201.087 41.2713 201.259 41.4531 201.48 41.581C201.702 41.7088 201.964 41.7727 202.268 41.7727C202.47 41.7727 202.655 41.7443 202.822 41.6875C202.99 41.6307 203.134 41.5455 203.253 41.4318C203.372 41.3182 203.463 41.179 203.526 41.0142L205.205 41.125C205.119 41.5284 204.945 41.8807 204.68 42.1818C204.419 42.4801 204.081 42.7131 203.666 42.8807C203.254 43.0455 202.778 43.1278 202.239 43.1278ZM209.239 43V34.2727H211.084V41.4787H214.826V43H209.239ZM218.971 43.1278C218.309 43.1278 217.737 42.9872 217.254 42.706C216.773 42.4219 216.403 42.027 216.141 41.5213C215.88 41.0128 215.749 40.4233 215.749 39.7528C215.749 39.0767 215.88 38.4858 216.141 37.9801C216.403 37.4716 216.773 37.0767 217.254 36.7955C217.737 36.5114 218.309 36.3693 218.971 36.3693C219.633 36.3693 220.204 36.5114 220.684 36.7955C221.167 37.0767 221.539 37.4716 221.8 37.9801C222.062 38.4858 222.192 39.0767 222.192 39.7528C222.192 40.4233 222.062 41.0128 221.8 41.5213C221.539 42.027 221.167 42.4219 220.684 42.706C220.204 42.9872 219.633 43.1278 218.971 43.1278ZM218.979 41.7216C219.281 41.7216 219.532 41.6364 219.734 41.4659C219.935 41.2926 220.087 41.0568 220.19 40.7585C220.295 40.4602 220.347 40.1207 220.347 39.7401C220.347 39.3594 220.295 39.0199 220.19 38.7216C220.087 38.4233 219.935 38.1875 219.734 38.0142C219.532 37.8409 219.281 37.7543 218.979 37.7543C218.675 37.7543 218.42 37.8409 218.212 38.0142C218.008 38.1875 217.853 38.4233 217.748 38.7216C217.646 39.0199 217.594 39.3594 217.594 39.7401C217.594 40.1207 217.646 40.4602 217.748 40.7585C217.853 41.0568 218.008 41.2926 218.212 41.4659C218.42 41.6364 218.675 41.7216 218.979 41.7216ZM226.322 45.5909C225.734 45.5909 225.229 45.5099 224.809 45.348C224.391 45.1889 224.059 44.9716 223.812 44.696C223.565 44.4205 223.404 44.1108 223.33 43.767L225.009 43.5412C225.06 43.6719 225.141 43.794 225.252 43.9077C225.363 44.0213 225.509 44.1122 225.691 44.1804C225.876 44.2514 226.1 44.2869 226.364 44.2869C226.759 44.2869 227.085 44.1903 227.34 43.9972C227.599 43.8068 227.728 43.4872 227.728 43.0384V41.8409H227.651C227.572 42.0227 227.452 42.1946 227.293 42.3565C227.134 42.5185 226.93 42.6506 226.68 42.7528C226.43 42.8551 226.131 42.9062 225.785 42.9062C225.293 42.9062 224.846 42.7926 224.442 42.5653C224.042 42.3352 223.722 41.9844 223.484 41.5128C223.248 41.0384 223.13 40.4389 223.13 39.7145C223.13 38.973 223.251 38.3537 223.492 37.8565C223.734 37.3594 224.055 36.9872 224.455 36.7401C224.859 36.4929 225.3 36.3693 225.781 36.3693C226.147 36.3693 226.454 36.4318 226.701 36.5568C226.948 36.679 227.147 36.8324 227.298 37.017C227.451 37.1989 227.569 37.3778 227.651 37.554H227.719V36.4545H229.522V43.0639C229.522 43.6207 229.386 44.0866 229.113 44.4616C228.84 44.8366 228.462 45.1179 227.979 45.3054C227.499 45.4957 226.947 45.5909 226.322 45.5909ZM226.36 41.5426C226.653 41.5426 226.9 41.4702 227.102 41.3253C227.306 41.1776 227.462 40.9673 227.57 40.6946C227.681 40.419 227.737 40.0895 227.737 39.706C227.737 39.3224 227.683 38.9901 227.575 38.7088C227.467 38.4247 227.31 38.2045 227.106 38.0483C226.901 37.892 226.653 37.8139 226.36 37.8139C226.062 37.8139 225.81 37.8949 225.606 38.0568C225.401 38.2159 225.246 38.4375 225.141 38.7216C225.036 39.0057 224.984 39.3338 224.984 39.706C224.984 40.0838 225.036 40.4105 225.141 40.6861C225.249 40.9588 225.404 41.1705 225.606 41.321C225.81 41.4687 226.062 41.5426 226.36 41.5426ZM230.967 43V36.4545H232.782V43H230.967ZM231.879 35.6108C231.609 35.6108 231.377 35.5213 231.184 35.3423C230.994 35.1605 230.898 34.9432 230.898 34.6903C230.898 34.4403 230.994 34.2259 231.184 34.0469C231.377 33.8651 231.609 33.7741 231.879 33.7741C232.148 33.7741 232.379 33.8651 232.569 34.0469C232.762 34.2259 232.859 34.4403 232.859 34.6903C232.859 34.9432 232.762 35.1605 232.569 35.3423C232.379 35.5213 232.148 35.6108 231.879 35.6108ZM237.194 43.1278C236.523 43.1278 235.946 42.9858 235.463 42.7017C234.983 42.4148 234.614 42.017 234.355 41.5085C234.1 41 233.972 40.4148 233.972 39.7528C233.972 39.0824 234.101 38.4943 234.36 37.9886C234.621 37.4801 234.992 37.0838 235.472 36.7997C235.952 36.5128 236.523 36.3693 237.185 36.3693C237.756 36.3693 238.256 36.473 238.685 36.6804C239.114 36.8878 239.453 37.179 239.703 37.554C239.953 37.929 240.091 38.3693 240.117 38.875H238.404C238.355 38.5483 238.228 38.2855 238.02 38.0866C237.816 37.8849 237.547 37.7841 237.215 37.7841C236.934 37.7841 236.688 37.8608 236.478 38.0142C236.27 38.1648 236.108 38.3849 235.992 38.6747C235.875 38.9645 235.817 39.3153 235.817 39.7273C235.817 40.1449 235.874 40.5 235.988 40.7926C236.104 41.0852 236.267 41.3082 236.478 41.4616C236.688 41.6151 236.934 41.6918 237.215 41.6918C237.422 41.6918 237.608 41.6491 237.773 41.5639C237.941 41.4787 238.078 41.3551 238.186 41.1932C238.297 41.0284 238.37 40.831 238.404 40.6009H240.117C240.088 41.1009 239.952 41.5412 239.708 41.9219C239.466 42.2997 239.132 42.5952 238.706 42.8082C238.28 43.0213 237.776 43.1278 237.194 43.1278Z" fill="white"/>
<rect x="27" y="136" width="120.896" height="31" rx="10" fill="black"/>
<path d="M47.7585 148.273H50.0341L52.4375 154.136H52.5398L54.9432 148.273H57.2188V157H55.429V151.32H55.3565L53.098 156.957H51.8793L49.6207 151.298H49.5483V157H47.7585V148.273ZM61.6623 157.128C61.0004 157.128 60.4279 156.987 59.945 156.706C59.4648 156.422 59.0941 156.027 58.8327 155.521C58.5714 155.013 58.4407 154.423 58.4407 153.753C58.4407 153.077 58.5714 152.486 58.8327 151.98C59.0941 151.472 59.4648 151.077 59.945 150.795C60.4279 150.511 61.0004 150.369 61.6623 150.369C62.3242 150.369 62.8952 150.511 63.3754 150.795C63.8583 151.077 64.2305 151.472 64.4918 151.98C64.7532 152.486 64.8839 153.077 64.8839 153.753C64.8839 154.423 64.7532 155.013 64.4918 155.521C64.2305 156.027 63.8583 156.422 63.3754 156.706C62.8952 156.987 62.3242 157.128 61.6623 157.128ZM61.6708 155.722C61.9719 155.722 62.2234 155.636 62.4251 155.466C62.6268 155.293 62.7788 155.057 62.881 154.759C62.9862 154.46 63.0387 154.121 63.0387 153.74C63.0387 153.359 62.9862 153.02 62.881 152.722C62.7788 152.423 62.6268 152.187 62.4251 152.014C62.2234 151.841 61.9719 151.754 61.6708 151.754C61.3668 151.754 61.1112 151.841 60.9038 152.014C60.6992 152.187 60.5444 152.423 60.4393 152.722C60.337 153.02 60.2859 153.359 60.2859 153.74C60.2859 154.121 60.337 154.46 60.4393 154.759C60.5444 155.057 60.6992 155.293 60.9038 155.466C61.1112 155.636 61.3668 155.722 61.6708 155.722ZM68.4762 157.107C67.979 157.107 67.5288 156.979 67.1254 156.723C66.7248 156.464 66.4066 156.085 66.1708 155.585C65.9379 155.082 65.8214 154.466 65.8214 153.736C65.8214 152.986 65.9421 152.362 66.1836 151.865C66.4251 151.365 66.7461 150.991 67.1467 150.744C67.5501 150.494 67.9918 150.369 68.4719 150.369C68.8384 150.369 69.1438 150.432 69.3881 150.557C69.6353 150.679 69.8342 150.832 69.9847 151.017C70.1381 151.199 70.2546 151.378 70.3342 151.554H70.3896V148.273H72.2006V157H70.4109V155.952H70.3342C70.2489 156.134 70.1282 156.314 69.9719 156.493C69.8185 156.669 69.6183 156.815 69.3711 156.932C69.1268 157.048 68.8285 157.107 68.4762 157.107ZM69.0515 155.662C69.3441 155.662 69.5913 155.582 69.793 155.423C69.9975 155.261 70.1538 155.036 70.2617 154.746C70.3725 154.456 70.4279 154.116 70.4279 153.727C70.4279 153.338 70.3739 153 70.266 152.713C70.158 152.426 70.0018 152.205 69.7972 152.048C69.5927 151.892 69.3441 151.814 69.0515 151.814C68.7532 151.814 68.5018 151.895 68.2972 152.057C68.0927 152.219 67.9379 152.443 67.8327 152.73C67.7276 153.017 67.6751 153.349 67.6751 153.727C67.6751 154.108 67.7276 154.445 67.8327 154.737C67.9407 155.027 68.0955 155.254 68.2972 155.419C68.5018 155.581 68.7532 155.662 69.0515 155.662ZM76.6761 157.128C76.0028 157.128 75.4233 156.991 74.9375 156.719C74.4545 156.443 74.0824 156.054 73.821 155.551C73.5597 155.045 73.429 154.447 73.429 153.757C73.429 153.084 73.5597 152.493 73.821 151.984C74.0824 151.476 74.4503 151.08 74.9247 150.795C75.402 150.511 75.9616 150.369 76.6037 150.369C77.0355 150.369 77.4375 150.439 77.8097 150.578C78.1847 150.714 78.5114 150.92 78.7898 151.196C79.071 151.472 79.2898 151.818 79.446 152.236C79.6023 152.651 79.6804 153.136 79.6804 153.693V154.192H74.1534V153.067H77.9716C77.9716 152.805 77.9148 152.574 77.8011 152.372C77.6875 152.17 77.5298 152.013 77.3281 151.899C77.1293 151.783 76.8977 151.724 76.6335 151.724C76.358 151.724 76.1136 151.788 75.9006 151.916C75.6903 152.041 75.5256 152.21 75.4062 152.423C75.2869 152.634 75.2259 152.868 75.223 153.126V154.196C75.223 154.52 75.2827 154.8 75.402 155.036C75.5241 155.271 75.696 155.453 75.9176 155.581C76.1392 155.709 76.402 155.773 76.706 155.773C76.9077 155.773 77.0923 155.744 77.2599 155.688C77.4276 155.631 77.571 155.545 77.6903 155.432C77.8097 155.318 77.9006 155.179 77.9631 155.014L79.642 155.125C79.5568 155.528 79.3821 155.881 79.1179 156.182C78.8565 156.48 78.5185 156.713 78.1037 156.881C77.6918 157.045 77.2159 157.128 76.6761 157.128ZM82.6804 148.273V157H80.8651V148.273H82.6804ZM90.7131 147.864L87.9006 158.312H86.3366L89.1491 147.864H90.7131ZM99.1335 150.783C99.0994 150.439 98.9531 150.172 98.6946 149.982C98.4361 149.791 98.0852 149.696 97.642 149.696C97.3409 149.696 97.0866 149.739 96.8793 149.824C96.6719 149.906 96.5128 150.021 96.402 150.169C96.294 150.317 96.2401 150.484 96.2401 150.672C96.2344 150.828 96.267 150.964 96.3381 151.081C96.4119 151.197 96.5128 151.298 96.6406 151.384C96.7685 151.466 96.9162 151.538 97.0838 151.601C97.2514 151.661 97.4304 151.712 97.6207 151.754L98.4048 151.942C98.7855 152.027 99.1349 152.141 99.4531 152.283C99.7713 152.425 100.047 152.599 100.28 152.807C100.513 153.014 100.693 153.259 100.821 153.54C100.952 153.821 101.018 154.143 101.021 154.507C101.018 155.041 100.882 155.504 100.612 155.896C100.345 156.286 99.9588 156.588 99.4531 156.804C98.9503 157.017 98.3438 157.124 97.6335 157.124C96.929 157.124 96.3153 157.016 95.7926 156.8C95.2727 156.584 94.8665 156.264 94.5739 155.841C94.2841 155.415 94.1321 154.888 94.1179 154.26H95.9034C95.9233 154.553 96.0071 154.797 96.1548 154.993C96.3054 155.186 96.5057 155.332 96.7557 155.432C97.0085 155.528 97.294 155.577 97.6122 155.577C97.9247 155.577 98.196 155.531 98.4261 155.44C98.6591 155.349 98.8395 155.223 98.9673 155.061C99.0952 154.899 99.1591 154.713 99.1591 154.503C99.1591 154.307 99.1009 154.142 98.9844 154.009C98.8707 153.875 98.7031 153.761 98.4815 153.668C98.2628 153.574 97.9943 153.489 97.6761 153.412L96.7259 153.173C95.9901 152.994 95.4091 152.714 94.983 152.334C94.5568 151.953 94.3452 151.44 94.348 150.795C94.3452 150.267 94.4858 149.805 94.7699 149.411C95.0568 149.016 95.4503 148.707 95.9503 148.486C96.4503 148.264 97.0185 148.153 97.6548 148.153C98.3026 148.153 98.8679 148.264 99.3509 148.486C99.8366 148.707 100.214 149.016 100.484 149.411C100.754 149.805 100.893 150.263 100.902 150.783H99.1335ZM105.71 150.455V151.818H101.768V150.455H105.71ZM102.663 148.886H104.478V154.989C104.478 155.156 104.504 155.287 104.555 155.381C104.606 155.472 104.677 155.536 104.768 155.572C104.862 155.609 104.97 155.628 105.092 155.628C105.177 155.628 105.262 155.621 105.348 155.607C105.433 155.589 105.498 155.577 105.544 155.568L105.829 156.919C105.738 156.947 105.61 156.98 105.446 157.017C105.281 157.057 105.081 157.081 104.845 157.089C104.407 157.107 104.024 157.048 103.694 156.915C103.368 156.781 103.113 156.574 102.931 156.293C102.75 156.011 102.66 155.656 102.663 155.227V148.886ZM108.759 157.124C108.341 157.124 107.969 157.051 107.642 156.906C107.316 156.759 107.057 156.541 106.867 156.254C106.679 155.964 106.586 155.604 106.586 155.172C106.586 154.808 106.652 154.503 106.786 154.256C106.919 154.009 107.101 153.81 107.331 153.659C107.561 153.509 107.823 153.395 108.115 153.318C108.411 153.241 108.721 153.188 109.044 153.156C109.425 153.116 109.732 153.08 109.965 153.045C110.198 153.009 110.367 152.955 110.472 152.884C110.577 152.812 110.63 152.707 110.63 152.568V152.543C110.63 152.273 110.544 152.064 110.374 151.916C110.206 151.768 109.968 151.695 109.658 151.695C109.331 151.695 109.071 151.767 108.878 151.912C108.685 152.054 108.557 152.233 108.495 152.449L106.816 152.312C106.901 151.915 107.069 151.571 107.319 151.281C107.569 150.989 107.891 150.764 108.286 150.608C108.684 150.449 109.144 150.369 109.667 150.369C110.03 150.369 110.378 150.412 110.711 150.497C111.046 150.582 111.343 150.714 111.601 150.893C111.863 151.072 112.069 151.303 112.219 151.584C112.37 151.862 112.445 152.196 112.445 152.585V157H110.723V156.092H110.672C110.567 156.297 110.426 156.477 110.25 156.634C110.074 156.787 109.863 156.908 109.615 156.996C109.368 157.081 109.083 157.124 108.759 157.124ZM109.279 155.871C109.546 155.871 109.782 155.818 109.986 155.713C110.191 155.605 110.351 155.46 110.468 155.278C110.584 155.097 110.642 154.891 110.642 154.661V153.966C110.586 154.003 110.507 154.037 110.408 154.068C110.311 154.097 110.202 154.124 110.08 154.149C109.958 154.172 109.836 154.193 109.713 154.213C109.591 154.23 109.48 154.246 109.381 154.26C109.168 154.291 108.982 154.341 108.823 154.409C108.664 154.477 108.54 154.57 108.452 154.686C108.364 154.8 108.32 154.942 108.32 155.112C108.32 155.359 108.409 155.548 108.588 155.679C108.77 155.807 109 155.871 109.279 155.871ZM117.335 150.455V151.818H113.393V150.455H117.335ZM114.288 148.886H116.103V154.989C116.103 155.156 116.129 155.287 116.18 155.381C116.231 155.472 116.302 155.536 116.393 155.572C116.487 155.609 116.595 155.628 116.717 155.628C116.802 155.628 116.887 155.621 116.973 155.607C117.058 155.589 117.123 155.577 117.169 155.568L117.454 156.919C117.363 156.947 117.235 156.98 117.071 157.017C116.906 157.057 116.706 157.081 116.47 157.089C116.032 157.107 115.649 157.048 115.319 156.915C114.993 156.781 114.738 156.574 114.556 156.293C114.375 156.011 114.285 155.656 114.288 155.227V148.886ZM121.43 157.128C120.757 157.128 120.177 156.991 119.691 156.719C119.208 156.443 118.836 156.054 118.575 155.551C118.314 155.045 118.183 154.447 118.183 153.757C118.183 153.084 118.314 152.493 118.575 151.984C118.836 151.476 119.204 151.08 119.679 150.795C120.156 150.511 120.716 150.369 121.358 150.369C121.789 150.369 122.191 150.439 122.564 150.578C122.939 150.714 123.265 150.92 123.544 151.196C123.825 151.472 124.044 151.818 124.2 152.236C124.356 152.651 124.434 153.136 124.434 153.693V154.192H118.907V153.067H122.725C122.725 152.805 122.669 152.574 122.555 152.372C122.441 152.17 122.284 152.013 122.082 151.899C121.883 151.783 121.652 151.724 121.387 151.724C121.112 151.724 120.868 151.788 120.654 151.916C120.444 152.041 120.279 152.21 120.16 152.423C120.041 152.634 119.98 152.868 119.977 153.126V154.196C119.977 154.52 120.037 154.8 120.156 155.036C120.278 155.271 120.45 155.453 120.672 155.581C120.893 155.709 121.156 155.773 121.46 155.773C121.662 155.773 121.846 155.744 122.014 155.688C122.181 155.631 122.325 155.545 122.444 155.432C122.564 155.318 122.654 155.179 122.717 155.014L124.396 155.125C124.311 155.528 124.136 155.881 123.872 156.182C123.61 156.48 123.272 156.713 122.858 156.881C122.446 157.045 121.97 157.128 121.43 157.128Z" fill="white"/>
<rect x="188.5" y="141.5" width="64" height="19" stroke="black"/>
<path d="M202.653 147.727H203.534V152.543C203.534 153.04 203.417 153.484 203.183 153.874C202.951 154.263 202.623 154.569 202.199 154.794C201.775 155.017 201.278 155.128 200.707 155.128C200.137 155.128 199.64 155.017 199.216 154.794C198.792 154.569 198.463 154.263 198.229 153.874C197.997 153.484 197.881 153.04 197.881 152.543V147.727H198.761V152.472C198.761 152.827 198.839 153.143 198.996 153.42C199.152 153.694 199.375 153.911 199.663 154.07C199.955 154.226 200.303 154.304 200.707 154.304C201.112 154.304 201.46 154.226 201.751 154.07C202.043 153.911 202.265 153.694 202.419 153.42C202.575 153.143 202.653 152.827 202.653 152.472V147.727ZM205.179 157.045V149.545H205.989V150.412H206.088C206.15 150.317 206.235 150.196 206.344 150.05C206.455 149.901 206.614 149.768 206.82 149.652C207.028 149.534 207.31 149.474 207.665 149.474C208.124 149.474 208.529 149.589 208.879 149.819C209.23 150.049 209.503 150.374 209.7 150.795C209.896 151.217 209.994 151.714 209.994 152.287C209.994 152.865 209.896 153.365 209.7 153.789C209.503 154.21 209.231 154.537 208.883 154.769C208.535 154.999 208.134 155.114 207.679 155.114C207.329 155.114 207.048 155.056 206.838 154.94C206.627 154.821 206.465 154.687 206.351 154.538C206.237 154.387 206.15 154.261 206.088 154.162H206.017V157.045H205.179ZM206.003 152.273C206.003 152.685 206.063 153.048 206.184 153.363C206.305 153.675 206.481 153.92 206.713 154.098C206.945 154.273 207.229 154.361 207.566 154.361C207.916 154.361 208.208 154.268 208.443 154.084C208.679 153.897 208.857 153.646 208.975 153.331C209.096 153.014 209.156 152.661 209.156 152.273C209.156 151.889 209.097 151.544 208.979 151.236C208.863 150.926 208.686 150.681 208.45 150.501C208.215 150.318 207.921 150.227 207.566 150.227C207.225 150.227 206.938 150.314 206.706 150.487C206.474 150.657 206.299 150.896 206.181 151.204C206.062 151.509 206.003 151.866 206.003 152.273ZM213.333 155.114C212.878 155.114 212.477 154.999 212.129 154.769C211.781 154.537 211.508 154.21 211.312 153.789C211.115 153.365 211.017 152.865 211.017 152.287C211.017 151.714 211.115 151.217 211.312 150.795C211.508 150.374 211.782 150.049 212.132 149.819C212.483 149.589 212.887 149.474 213.347 149.474C213.702 149.474 213.982 149.534 214.188 149.652C214.397 149.768 214.555 149.901 214.664 150.05C214.776 150.196 214.862 150.317 214.923 150.412H214.994V147.727H215.833V155H215.023V154.162H214.923C214.862 154.261 214.774 154.387 214.661 154.538C214.547 154.687 214.385 154.821 214.174 154.94C213.963 155.056 213.683 155.114 213.333 155.114ZM213.446 154.361C213.782 154.361 214.066 154.273 214.298 154.098C214.53 153.92 214.707 153.675 214.828 153.363C214.948 153.048 215.009 152.685 215.009 152.273C215.009 151.866 214.95 151.509 214.831 151.204C214.713 150.896 214.538 150.657 214.306 150.487C214.074 150.314 213.787 150.227 213.446 150.227C213.091 150.227 212.795 150.318 212.558 150.501C212.324 150.681 212.148 150.926 212.029 151.236C211.913 151.544 211.855 151.889 211.855 152.273C211.855 152.661 211.914 153.014 212.033 153.331C212.154 153.646 212.331 153.897 212.566 154.084C212.802 154.268 213.096 154.361 213.446 154.361ZM219.089 155.128C218.743 155.128 218.43 155.063 218.148 154.933C217.866 154.8 217.642 154.609 217.477 154.361C217.311 154.11 217.228 153.807 217.228 153.452C217.228 153.139 217.29 152.886 217.413 152.692C217.536 152.495 217.7 152.341 217.906 152.23C218.112 152.119 218.34 152.036 218.588 151.982C218.839 151.925 219.091 151.88 219.345 151.847C219.676 151.804 219.945 151.772 220.151 151.751C220.359 151.727 220.511 151.688 220.605 151.634C220.702 151.579 220.751 151.484 220.751 151.349V151.321C220.751 150.971 220.655 150.698 220.463 150.504C220.274 150.31 219.986 150.213 219.6 150.213C219.2 150.213 218.887 150.301 218.659 150.476C218.432 150.651 218.272 150.838 218.18 151.037L217.384 150.753C217.526 150.421 217.716 150.163 217.953 149.979C218.192 149.792 218.452 149.661 218.734 149.588C219.018 149.512 219.297 149.474 219.572 149.474C219.747 149.474 219.948 149.496 220.176 149.538C220.405 149.579 220.627 149.663 220.84 149.79C221.055 149.918 221.234 150.111 221.376 150.369C221.518 150.627 221.589 150.973 221.589 151.406V155H220.751V154.261H220.708C220.651 154.38 220.557 154.506 220.424 154.641C220.292 154.776 220.115 154.891 219.895 154.986C219.675 155.08 219.406 155.128 219.089 155.128ZM219.217 154.375C219.548 154.375 219.828 154.31 220.055 154.18C220.285 154.049 220.457 153.881 220.573 153.675C220.692 153.469 220.751 153.253 220.751 153.026V152.259C220.715 152.301 220.637 152.34 220.517 152.376C220.398 152.409 220.261 152.438 220.105 152.464C219.951 152.488 219.8 152.509 219.654 152.528C219.509 152.545 219.392 152.559 219.302 152.571C219.084 152.599 218.881 152.646 218.691 152.71C218.504 152.771 218.353 152.865 218.237 152.99C218.123 153.113 218.066 153.281 218.066 153.494C218.066 153.786 218.174 154.006 218.389 154.155C218.607 154.302 218.883 154.375 219.217 154.375ZM225.491 149.545V150.256H222.664V149.545H225.491ZM223.488 148.239H224.326V153.438C224.326 153.674 224.36 153.852 224.429 153.97C224.5 154.086 224.59 154.164 224.699 154.205C224.81 154.242 224.927 154.261 225.05 154.261C225.143 154.261 225.219 154.257 225.278 154.247C225.337 154.235 225.384 154.226 225.42 154.219L225.59 154.972C225.533 154.993 225.454 155.014 225.352 155.036C225.25 155.059 225.121 155.071 224.965 155.071C224.728 155.071 224.496 155.02 224.269 154.918C224.044 154.817 223.857 154.661 223.708 154.453C223.561 154.245 223.488 153.982 223.488 153.665V148.239ZM228.98 155.114C228.454 155.114 228.001 154.998 227.62 154.766C227.241 154.531 226.949 154.205 226.743 153.786C226.539 153.364 226.437 152.874 226.437 152.315C226.437 151.757 226.539 151.264 226.743 150.838C226.949 150.41 227.235 150.076 227.602 149.837C227.971 149.595 228.402 149.474 228.895 149.474C229.179 149.474 229.459 149.522 229.736 149.616C230.013 149.711 230.265 149.865 230.493 150.078C230.72 150.289 230.901 150.568 231.036 150.916C231.171 151.264 231.238 151.693 231.238 152.202V152.557H227.034V151.832H230.386C230.386 151.525 230.324 151.25 230.201 151.009C230.081 150.767 229.908 150.576 229.683 150.437C229.46 150.297 229.198 150.227 228.895 150.227C228.561 150.227 228.272 150.31 228.028 150.476C227.787 150.639 227.601 150.852 227.471 151.115C227.34 151.378 227.275 151.66 227.275 151.96V152.443C227.275 152.855 227.346 153.204 227.488 153.491C227.633 153.775 227.833 153.991 228.088 154.141C228.344 154.287 228.641 154.361 228.98 154.361C229.2 154.361 229.399 154.33 229.576 154.268C229.756 154.205 229.911 154.11 230.042 153.984C230.172 153.857 230.272 153.698 230.343 153.509L231.153 153.736C231.068 154.01 230.925 154.252 230.723 154.46C230.522 154.666 230.274 154.827 229.978 154.943C229.682 155.057 229.349 155.114 228.98 155.114ZM240.212 147.727H241.093V152.543C241.093 153.04 240.975 153.484 240.741 153.874C240.509 154.263 240.181 154.569 239.757 154.794C239.334 155.017 238.837 155.128 238.266 155.128C237.695 155.128 237.198 155.017 236.775 154.794C236.351 154.569 236.022 154.263 235.787 153.874C235.555 153.484 235.439 153.04 235.439 152.543V147.727H236.32V152.472C236.32 152.827 236.398 153.143 236.554 153.42C236.711 153.694 236.933 153.911 237.222 154.07C237.513 154.226 237.861 154.304 238.266 154.304C238.671 154.304 239.019 154.226 239.31 154.07C239.601 153.911 239.824 153.694 239.978 153.42C240.134 153.143 240.212 152.827 240.212 152.472V147.727ZM243.732 147.727V155H242.851V147.727H243.732Z" fill="black"/>
<rect x="283.5" y="83.5" width="87" height="19" stroke="black"/>
<path d="M296.858 91.5455C296.815 91.1856 296.643 90.9062 296.339 90.7074C296.036 90.5085 295.665 90.4091 295.224 90.4091C294.902 90.4091 294.621 90.4612 294.379 90.5653C294.14 90.6695 293.953 90.8127 293.818 90.995C293.686 91.1773 293.619 91.3845 293.619 91.6165C293.619 91.8106 293.665 91.9775 293.758 92.1172C293.853 92.2545 293.973 92.3693 294.12 92.4616C294.267 92.5516 294.421 92.6262 294.582 92.6854C294.743 92.7422 294.891 92.7884 295.026 92.8239L295.764 93.0227C295.954 93.0724 296.164 93.1411 296.396 93.2287C296.631 93.3163 296.854 93.4358 297.067 93.5874C297.283 93.7365 297.46 93.9283 297.6 94.1626C297.74 94.397 297.81 94.6847 297.81 95.0256C297.81 95.4186 297.707 95.7737 297.501 96.0909C297.297 96.4081 296.999 96.6603 296.606 96.8473C296.215 97.0343 295.741 97.1278 295.182 97.1278C294.661 97.1278 294.21 97.0438 293.829 96.8757C293.45 96.7076 293.152 96.4732 292.934 96.1726C292.719 95.8719 292.597 95.5227 292.568 95.125H293.477C293.501 95.3996 293.593 95.6269 293.754 95.8068C293.918 95.9844 294.124 96.117 294.372 96.2045C294.623 96.2898 294.893 96.3324 295.182 96.3324C295.518 96.3324 295.82 96.2779 296.087 96.169C296.355 96.0578 296.567 95.9039 296.723 95.7074C296.879 95.5085 296.957 95.2765 296.957 95.0114C296.957 94.7699 296.89 94.5734 296.755 94.4219C296.62 94.2704 296.442 94.1473 296.222 94.0526C296.002 93.9579 295.764 93.875 295.509 93.804L294.614 93.5483C294.045 93.3849 293.596 93.1518 293.264 92.8487C292.933 92.5457 292.767 92.1491 292.767 91.6591C292.767 91.2519 292.877 90.8968 293.097 90.5938C293.32 90.2884 293.618 90.0516 293.992 89.8835C294.369 89.7131 294.789 89.6278 295.253 89.6278C295.722 89.6278 296.138 89.7119 296.503 89.88C296.867 90.0457 297.156 90.273 297.369 90.5618C297.585 90.8506 297.698 91.1785 297.71 91.5455H296.858ZM301.431 97.1136C300.905 97.1136 300.452 96.9976 300.071 96.7656C299.692 96.5312 299.4 96.2045 299.194 95.7855C298.99 95.3641 298.888 94.8741 298.888 94.3153C298.888 93.7566 298.99 93.2642 299.194 92.8381C299.4 92.4096 299.686 92.0758 300.053 91.8366C300.422 91.5952 300.853 91.4744 301.346 91.4744C301.63 91.4744 301.91 91.5218 302.187 91.6165C302.464 91.7112 302.716 91.8651 302.944 92.0781C303.171 92.2888 303.352 92.5682 303.487 92.9162C303.622 93.2642 303.689 93.6927 303.689 94.2017V94.5568H299.485V93.8324H302.837C302.837 93.5246 302.776 93.25 302.653 93.0085C302.532 92.767 302.359 92.5765 302.134 92.4368C301.912 92.2971 301.649 92.2273 301.346 92.2273C301.012 92.2273 300.723 92.3101 300.479 92.4759C300.238 92.6392 300.052 92.8523 299.922 93.1151C299.791 93.3778 299.726 93.6596 299.726 93.9602V94.4432C299.726 94.8551 299.797 95.2043 299.939 95.4908C300.084 95.7749 300.284 95.9915 300.54 96.1406C300.795 96.2874 301.092 96.3608 301.431 96.3608C301.651 96.3608 301.85 96.33 302.028 96.2685C302.207 96.2045 302.363 96.1098 302.493 95.9844C302.623 95.8565 302.724 95.6979 302.795 95.5085L303.604 95.7358C303.519 96.0104 303.376 96.2519 303.175 96.4602C302.973 96.6662 302.725 96.8272 302.429 96.9432C302.133 97.0568 301.8 97.1136 301.431 97.1136ZM305.802 93.7188V97H304.964V91.5455H305.774V92.3977H305.845C305.973 92.1207 306.167 91.8982 306.427 91.7301C306.688 91.5597 307.024 91.4744 307.436 91.4744C307.805 91.4744 308.128 91.5502 308.405 91.7017C308.682 91.8509 308.898 92.0781 309.052 92.3835C309.206 92.6866 309.282 93.0701 309.282 93.5341V97H308.444V93.5909C308.444 93.1624 308.333 92.8286 308.111 92.5895C307.888 92.348 307.583 92.2273 307.194 92.2273C306.927 92.2273 306.688 92.2853 306.477 92.4013C306.269 92.5173 306.104 92.6866 305.983 92.9091C305.863 93.1316 305.802 93.4015 305.802 93.7188ZM312.874 97.1136C312.419 97.1136 312.018 96.9988 311.67 96.7692C311.322 96.5372 311.049 96.2105 310.853 95.7891C310.656 95.3653 310.558 94.8646 310.558 94.2869C310.558 93.714 310.656 93.2169 310.853 92.7955C311.049 92.3741 311.323 92.0485 311.673 91.8189C312.024 91.5893 312.429 91.4744 312.888 91.4744C313.243 91.4744 313.523 91.5336 313.729 91.652C313.938 91.768 314.096 91.9006 314.205 92.0497C314.317 92.1965 314.403 92.3172 314.464 92.4119H314.536V89.7273H315.374V97H314.564V96.1619H314.464C314.403 96.2614 314.315 96.3868 314.202 96.5384C314.088 96.6875 313.926 96.8213 313.715 96.9396C313.504 97.0556 313.224 97.1136 312.874 97.1136ZM312.987 96.3608C313.323 96.3608 313.607 96.2732 313.839 96.098C314.071 95.9205 314.248 95.6754 314.369 95.3629C314.489 95.0481 314.55 94.6847 314.55 94.2727C314.55 93.8655 314.491 93.5092 314.372 93.2038C314.254 92.8961 314.079 92.657 313.847 92.4865C313.615 92.3137 313.328 92.2273 312.987 92.2273C312.632 92.2273 312.336 92.3184 312.099 92.5007C311.865 92.6806 311.689 92.9257 311.57 93.2358C311.454 93.5436 311.396 93.8892 311.396 94.2727C311.396 94.661 311.455 95.0137 311.574 95.331C311.695 95.6458 311.872 95.8968 312.107 96.0838C312.343 96.2685 312.637 96.3608 312.987 96.3608ZM319.951 89.7273H321.002L323.474 95.7642H323.559L326.031 89.7273H327.082V97H326.258V91.4744H326.187L323.914 97H323.119L320.846 91.4744H320.775V97H319.951V89.7273ZM331.021 97.1136C330.495 97.1136 330.042 96.9976 329.661 96.7656C329.282 96.5312 328.99 96.2045 328.784 95.7855C328.58 95.3641 328.478 94.8741 328.478 94.3153C328.478 93.7566 328.58 93.2642 328.784 92.8381C328.99 92.4096 329.276 92.0758 329.643 91.8366C330.012 91.5952 330.443 91.4744 330.936 91.4744C331.22 91.4744 331.5 91.5218 331.777 91.6165C332.054 91.7112 332.306 91.8651 332.534 92.0781C332.761 92.2888 332.942 92.5682 333.077 92.9162C333.212 93.2642 333.279 93.6927 333.279 94.2017V94.5568H329.075V93.8324H332.427C332.427 93.5246 332.365 93.25 332.242 93.0085C332.122 92.767 331.949 92.5765 331.724 92.4368C331.501 92.2971 331.239 92.2273 330.936 92.2273C330.602 92.2273 330.313 92.3101 330.069 92.4759C329.828 92.6392 329.642 92.8523 329.512 93.1151C329.381 93.3778 329.316 93.6596 329.316 93.9602V94.4432C329.316 94.8551 329.387 95.2043 329.529 95.4908C329.674 95.7749 329.874 95.9915 330.129 96.1406C330.385 96.2874 330.682 96.3608 331.021 96.3608C331.241 96.3608 331.44 96.33 331.617 96.2685C331.797 96.2045 331.952 96.1098 332.083 95.9844C332.213 95.8565 332.313 95.6979 332.384 95.5085L333.194 95.7358C333.109 96.0104 332.966 96.2519 332.764 96.4602C332.563 96.6662 332.315 96.8272 332.019 96.9432C331.723 97.0568 331.39 97.1136 331.021 97.1136ZM338.418 92.767L337.665 92.9801C337.618 92.8546 337.548 92.7327 337.455 92.6143C337.365 92.4936 337.242 92.3942 337.086 92.3161C336.93 92.2379 336.73 92.1989 336.486 92.1989C336.152 92.1989 335.874 92.2758 335.651 92.4297C335.431 92.5812 335.321 92.7741 335.321 93.0085C335.321 93.2169 335.397 93.3814 335.548 93.5021C335.7 93.6229 335.937 93.7235 336.259 93.804L337.068 94.0028C337.556 94.1212 337.919 94.3023 338.159 94.5462C338.398 94.7876 338.517 95.099 338.517 95.4801C338.517 95.7926 338.427 96.072 338.247 96.3182C338.07 96.5644 337.821 96.7585 337.502 96.9006C337.182 97.0426 336.81 97.1136 336.387 97.1136C335.83 97.1136 335.37 96.9929 335.005 96.7514C334.641 96.5099 334.41 96.1572 334.313 95.6932L335.108 95.4943C335.184 95.7879 335.327 96.008 335.538 96.1548C335.751 96.3016 336.029 96.375 336.372 96.375C336.763 96.375 337.073 96.2921 337.303 96.1264C337.535 95.9583 337.651 95.7571 337.651 95.5227C337.651 95.3333 337.584 95.1747 337.452 95.0469C337.319 94.9167 337.116 94.8196 336.841 94.7557L335.932 94.5426C335.432 94.4242 335.066 94.2408 334.831 93.9922C334.599 93.7412 334.483 93.4276 334.483 93.0511C334.483 92.7434 334.57 92.4711 334.742 92.2344C334.918 91.9976 335.155 91.8118 335.456 91.6768C335.759 91.5419 336.102 91.4744 336.486 91.4744C337.026 91.4744 337.45 91.5928 337.757 91.8295C338.067 92.0663 338.288 92.3788 338.418 92.767ZM343.642 92.767L342.89 92.9801C342.842 92.8546 342.772 92.7327 342.68 92.6143C342.59 92.4936 342.467 92.3942 342.311 92.3161C342.154 92.2379 341.954 92.1989 341.711 92.1989C341.377 92.1989 341.099 92.2758 340.876 92.4297C340.656 92.5812 340.546 92.7741 340.546 93.0085C340.546 93.2169 340.622 93.3814 340.773 93.5021C340.925 93.6229 341.161 93.7235 341.483 93.804L342.293 94.0028C342.781 94.1212 343.144 94.3023 343.383 94.5462C343.622 94.7876 343.742 95.099 343.742 95.4801C343.742 95.7926 343.652 96.072 343.472 96.3182C343.294 96.5644 343.046 96.7585 342.726 96.9006C342.407 97.0426 342.035 97.1136 341.611 97.1136C341.055 97.1136 340.594 96.9929 340.23 96.7514C339.865 96.5099 339.634 96.1572 339.537 95.6932L340.333 95.4943C340.408 95.7879 340.552 96.008 340.762 96.1548C340.975 96.3016 341.254 96.375 341.597 96.375C341.988 96.375 342.298 96.2921 342.527 96.1264C342.759 95.9583 342.875 95.7571 342.875 95.5227C342.875 95.3333 342.809 95.1747 342.676 95.0469C342.544 94.9167 342.34 94.8196 342.066 94.7557L341.157 94.5426C340.657 94.4242 340.29 94.2408 340.056 93.9922C339.824 93.7412 339.708 93.4276 339.708 93.0511C339.708 92.7434 339.794 92.4711 339.967 92.2344C340.142 91.9976 340.38 91.8118 340.681 91.6768C340.984 91.5419 341.327 91.4744 341.711 91.4744C342.25 91.4744 342.674 91.5928 342.982 91.8295C343.292 92.0663 343.512 92.3788 343.642 92.767ZM346.608 97.1278C346.263 97.1278 345.949 97.0627 345.667 96.9325C345.386 96.8 345.162 96.6094 344.996 96.3608C344.831 96.1098 344.748 95.8068 344.748 95.4517C344.748 95.1392 344.809 94.8859 344.932 94.6918C345.055 94.4953 345.22 94.3414 345.426 94.2301C345.632 94.1188 345.859 94.036 346.108 93.9815C346.359 93.9247 346.611 93.8797 346.864 93.8466C347.196 93.804 347.464 93.772 347.67 93.7507C347.879 93.727 348.03 93.688 348.125 93.6335C348.222 93.5791 348.27 93.4844 348.27 93.3494V93.321C348.27 92.9706 348.175 92.6984 347.983 92.5043C347.793 92.3101 347.506 92.2131 347.12 92.2131C346.72 92.2131 346.406 92.3007 346.179 92.4759C345.952 92.651 345.792 92.8381 345.699 93.0369L344.904 92.7528C345.046 92.4214 345.235 92.1634 345.472 91.9787C345.711 91.7917 345.972 91.6615 346.253 91.5881C346.537 91.5123 346.817 91.4744 347.091 91.4744C347.267 91.4744 347.468 91.4957 347.695 91.5384C347.925 91.5786 348.146 91.6626 348.359 91.7905C348.575 91.9183 348.753 92.1113 348.895 92.3693C349.037 92.6274 349.108 92.973 349.108 93.4062V97H348.27V96.2614H348.228C348.171 96.3797 348.076 96.5064 347.944 96.6413C347.811 96.7763 347.635 96.8911 347.415 96.9858C347.194 97.0805 346.926 97.1278 346.608 97.1278ZM346.736 96.375C347.068 96.375 347.347 96.3099 347.574 96.1797C347.804 96.0495 347.977 95.8814 348.093 95.6754C348.211 95.4695 348.27 95.2528 348.27 95.0256V94.2585C348.235 94.3011 348.157 94.3402 348.036 94.3757C347.918 94.4089 347.78 94.4384 347.624 94.4645C347.47 94.4882 347.32 94.5095 347.173 94.5284C347.029 94.545 346.912 94.5592 346.822 94.571C346.604 94.5994 346.4 94.6456 346.211 94.7095C346.024 94.7711 345.872 94.8646 345.756 94.9901C345.643 95.1132 345.586 95.2812 345.586 95.4943C345.586 95.7855 345.693 96.0057 345.909 96.1548C346.127 96.3016 346.403 96.375 346.736 96.375ZM352.84 99.1591C352.435 99.1591 352.087 99.107 351.796 99.0028C351.505 98.901 351.262 98.7661 351.068 98.598C350.876 98.4323 350.723 98.2547 350.61 98.0653L351.277 97.5966C351.353 97.696 351.449 97.8097 351.565 97.9375C351.681 98.0677 351.84 98.1802 352.041 98.2749C352.244 98.3719 352.511 98.4205 352.84 98.4205C353.28 98.4205 353.644 98.3139 353.93 98.1009C354.217 97.8878 354.36 97.554 354.36 97.0994V95.9915H354.289C354.227 96.0909 354.14 96.214 354.026 96.3608C353.915 96.5052 353.754 96.6342 353.543 96.7479C353.335 96.8591 353.053 96.9148 352.698 96.9148C352.257 96.9148 351.862 96.8106 351.512 96.6023C351.164 96.3939 350.888 96.0909 350.684 95.6932C350.483 95.2955 350.382 94.8125 350.382 94.2443C350.382 93.6856 350.481 93.1991 350.677 92.7848C350.874 92.3681 351.147 92.0462 351.498 91.8189C351.848 91.5893 352.253 91.4744 352.712 91.4744C353.067 91.4744 353.349 91.5336 353.557 91.652C353.768 91.768 353.929 91.9006 354.04 92.0497C354.154 92.1965 354.241 92.3172 354.303 92.4119H354.388V91.5455H355.198V97.1562C355.198 97.625 355.091 98.0062 354.878 98.2997C354.667 98.5956 354.383 98.8123 354.026 98.9496C353.671 99.0893 353.275 99.1591 352.84 99.1591ZM352.811 96.1619C353.148 96.1619 353.432 96.085 353.664 95.9311C353.896 95.7772 354.072 95.5559 354.193 95.267C354.314 94.9782 354.374 94.6326 354.374 94.2301C354.374 93.8371 354.315 93.4903 354.196 93.1896C354.078 92.889 353.903 92.6534 353.671 92.483C353.439 92.3125 353.152 92.2273 352.811 92.2273C352.456 92.2273 352.16 92.3172 351.924 92.4972C351.689 92.6771 351.513 92.9186 351.395 93.2216C351.279 93.5246 351.221 93.8608 351.221 94.2301C351.221 94.6089 351.28 94.9439 351.398 95.2351C351.519 95.5239 351.696 95.7512 351.931 95.9169C352.167 96.0803 352.461 96.1619 352.811 96.1619ZM359.019 97.1136C358.493 97.1136 358.04 96.9976 357.659 96.7656C357.28 96.5312 356.988 96.2045 356.782 95.7855C356.578 95.3641 356.476 94.8741 356.476 94.3153C356.476 93.7566 356.578 93.2642 356.782 92.8381C356.988 92.4096 357.274 92.0758 357.641 91.8366C358.01 91.5952 358.441 91.4744 358.934 91.4744C359.218 91.4744 359.498 91.5218 359.775 91.6165C360.052 91.7112 360.304 91.8651 360.532 92.0781C360.759 92.2888 360.94 92.5682 361.075 92.9162C361.21 93.2642 361.277 93.6927 361.277 94.2017V94.5568H357.073V93.8324H360.425C360.425 93.5246 360.364 93.25 360.24 93.0085C360.12 92.767 359.947 92.5765 359.722 92.4368C359.499 92.2971 359.237 92.2273 358.934 92.2273C358.6 92.2273 358.311 92.3101 358.067 92.4759C357.826 92.6392 357.64 92.8523 357.51 93.1151C357.379 93.3778 357.314 93.6596 357.314 93.9602V94.4432C357.314 94.8551 357.385 95.2043 357.527 95.4908C357.672 95.7749 357.872 95.9915 358.127 96.1406C358.383 96.2874 358.68 96.3608 359.019 96.3608C359.239 96.3608 359.438 96.33 359.615 96.2685C359.795 96.2045 359.95 96.1098 360.081 95.9844C360.211 95.8565 360.311 95.6979 360.382 95.5085L361.192 95.7358C361.107 96.0104 360.964 96.2519 360.762 96.4602C360.561 96.6662 360.313 96.8272 360.017 96.9432C359.721 97.0568 359.388 97.1136 359.019 97.1136Z" fill="black"/>
<rect x="47.5" y="85.5" width="85" height="19" stroke="black"/>
<path d="M62.6534 91.7273H63.5341V96.5426C63.5341 97.0398 63.4169 97.4837 63.1825 97.8743C62.9505 98.2625 62.6226 98.5691 62.1989 98.794C61.7751 99.0166 61.2779 99.1278 60.7074 99.1278C60.1368 99.1278 59.6397 99.0166 59.2159 98.794C58.7921 98.5691 58.4631 98.2625 58.2287 97.8743C57.9967 97.4837 57.8807 97.0398 57.8807 96.5426V91.7273H58.7614V96.4716C58.7614 96.8267 58.8395 97.1428 58.9957 97.4197C59.152 97.6944 59.3745 97.911 59.6634 98.0696C59.9545 98.2259 60.3026 98.304 60.7074 98.304C61.1122 98.304 61.4602 98.2259 61.7514 98.0696C62.0426 97.911 62.2652 97.6944 62.419 97.4197C62.5753 97.1428 62.6534 96.8267 62.6534 96.4716V91.7273ZM65.1792 101.045V93.5455H65.9888V94.4119H66.0882C66.1498 94.3172 66.235 94.1965 66.3439 94.0497C66.4552 93.9006 66.6138 93.768 66.8198 93.652C67.0281 93.5336 67.3098 93.4744 67.665 93.4744C68.1242 93.4744 68.5291 93.5893 68.8794 93.8189C69.2298 94.0485 69.5033 94.3741 69.6998 94.7955C69.8962 95.2169 69.9945 95.714 69.9945 96.2869C69.9945 96.8646 69.8962 97.3653 69.6998 97.7891C69.5033 98.2105 69.231 98.5372 68.883 98.7692C68.535 98.9988 68.1337 99.1136 67.6792 99.1136C67.3288 99.1136 67.0482 99.0556 66.8375 98.9396C66.6268 98.8213 66.4647 98.6875 66.351 98.5384C66.2374 98.3868 66.1498 98.2614 66.0882 98.1619H66.0172V101.045H65.1792ZM66.003 96.2727C66.003 96.6847 66.0634 97.0481 66.1841 97.3629C66.3049 97.6754 66.4812 97.9205 66.7132 98.098C66.9453 98.2732 67.2293 98.3608 67.5655 98.3608C67.9159 98.3608 68.2083 98.2685 68.4426 98.0838C68.6794 97.8968 68.8569 97.6458 68.9753 97.331C69.0961 97.0137 69.1564 96.661 69.1564 96.2727C69.1564 95.8892 69.0972 95.5436 68.9789 95.2358C68.8629 94.9257 68.6865 94.6806 68.4498 94.5007C68.2154 94.3184 67.9206 94.2273 67.5655 94.2273C67.2246 94.2273 66.9382 94.3137 66.7061 94.4865C66.4741 94.657 66.2989 94.8961 66.1806 95.2038C66.0622 95.5092 66.003 95.8655 66.003 96.2727ZM73.3326 99.1136C72.878 99.1136 72.4767 98.9988 72.1287 98.7692C71.7807 98.5372 71.5085 98.2105 71.312 97.7891C71.1155 97.3653 71.0172 96.8646 71.0172 96.2869C71.0172 95.714 71.1155 95.2169 71.312 94.7955C71.5085 94.3741 71.7819 94.0485 72.1323 93.8189C72.4827 93.5893 72.8875 93.4744 73.3468 93.4744C73.7019 93.4744 73.9824 93.5336 74.1884 93.652C74.3967 93.768 74.5553 93.9006 74.6642 94.0497C74.7755 94.1965 74.8619 94.3172 74.9235 94.4119H74.9945V91.7273H75.8326V99H75.0229V98.1619H74.9235C74.8619 98.2614 74.7743 98.3868 74.6607 98.5384C74.5471 98.6875 74.3849 98.8213 74.1742 98.9396C73.9635 99.0556 73.6829 99.1136 73.3326 99.1136ZM73.4462 98.3608C73.7824 98.3608 74.0665 98.2732 74.2985 98.098C74.5305 97.9205 74.7069 97.6754 74.8276 97.3629C74.9483 97.0481 75.0087 96.6847 75.0087 96.2727C75.0087 95.8655 74.9495 95.5092 74.8311 95.2038C74.7128 94.8961 74.5376 94.657 74.3056 94.4865C74.0736 94.3137 73.7871 94.2273 73.4462 94.2273C73.0911 94.2273 72.7952 94.3184 72.5584 94.5007C72.324 94.6806 72.1477 94.9257 72.0293 95.2358C71.9133 95.5436 71.8553 95.8892 71.8553 96.2727C71.8553 96.661 71.9145 97.0137 72.0328 97.331C72.1536 97.6458 72.3311 97.8968 72.5655 98.0838C72.8023 98.2685 73.0958 98.3608 73.4462 98.3608ZM79.089 99.1278C78.7433 99.1278 78.4296 99.0627 78.1479 98.9325C77.8662 98.8 77.6425 98.6094 77.4767 98.3608C77.311 98.1098 77.2282 97.8068 77.2282 97.4517C77.2282 97.1392 77.2897 96.8859 77.4128 96.6918C77.5359 96.4953 77.7005 96.3414 77.9064 96.2301C78.1124 96.1188 78.3397 96.036 78.5882 95.9815C78.8392 95.9247 79.0913 95.8797 79.3446 95.8466C79.6761 95.804 79.9448 95.772 80.1507 95.7507C80.3591 95.727 80.5106 95.688 80.6053 95.6335C80.7024 95.5791 80.7509 95.4844 80.7509 95.3494V95.321C80.7509 94.9706 80.655 94.6984 80.4632 94.5043C80.2739 94.3101 79.9862 94.2131 79.6003 94.2131C79.2002 94.2131 78.8865 94.3007 78.6593 94.4759C78.432 94.651 78.2722 94.8381 78.1799 95.0369L77.3844 94.7528C77.5265 94.4214 77.7158 94.1634 77.9526 93.9787C78.1917 93.7917 78.4521 93.6615 78.7338 93.5881C79.0179 93.5123 79.2973 93.4744 79.5719 93.4744C79.7471 93.4744 79.9483 93.4957 80.1756 93.5384C80.4052 93.5786 80.6266 93.6626 80.8397 93.7905C81.0551 93.9183 81.2338 94.1113 81.3759 94.3693C81.5179 94.6274 81.589 94.973 81.589 95.4062V99H80.7509V98.2614H80.7083C80.6515 98.3797 80.5568 98.5064 80.4242 98.6413C80.2916 98.7763 80.1152 98.8911 79.8951 98.9858C79.6749 99.0805 79.4062 99.1278 79.089 99.1278ZM79.2168 98.375C79.5482 98.375 79.8276 98.3099 80.0549 98.1797C80.2845 98.0495 80.4573 97.8814 80.5733 97.6754C80.6917 97.4695 80.7509 97.2528 80.7509 97.0256V96.2585C80.7154 96.3011 80.6373 96.3402 80.5165 96.3757C80.3981 96.4089 80.2608 96.4384 80.1046 96.4645C79.9507 96.4882 79.8004 96.5095 79.6536 96.5284C79.5092 96.545 79.392 96.5592 79.302 96.571C79.0842 96.5994 78.8806 96.6456 78.6912 96.7095C78.5042 96.7711 78.3527 96.8646 78.2367 96.9901C78.123 97.1132 78.0662 97.2812 78.0662 97.4943C78.0662 97.7855 78.1739 98.0057 78.3894 98.1548C78.6072 98.3016 78.883 98.375 79.2168 98.375ZM85.4908 93.5455V94.2557H82.6641V93.5455H85.4908ZM83.4879 92.2386H84.326V97.4375C84.326 97.6742 84.3603 97.8518 84.429 97.9702C84.5 98.0862 84.59 98.1643 84.6989 98.2045C84.8101 98.2424 84.9273 98.2614 85.0504 98.2614C85.1428 98.2614 85.2185 98.2566 85.2777 98.2472C85.3369 98.2353 85.3842 98.2259 85.4197 98.2188L85.5902 98.9716C85.5334 98.9929 85.4541 99.0142 85.3523 99.0355C85.2505 99.0592 85.1214 99.071 84.9652 99.071C84.7285 99.071 84.4964 99.0201 84.2692 98.9183C84.0443 98.8165 83.8572 98.6615 83.7081 98.4531C83.5613 98.2448 83.4879 97.982 83.4879 97.6648V92.2386ZM88.9798 99.1136C88.4542 99.1136 88.0008 98.9976 87.6197 98.7656C87.2409 98.5312 86.9485 98.2045 86.7425 97.7855C86.5389 97.3641 86.4371 96.8741 86.4371 96.3153C86.4371 95.7566 86.5389 95.2642 86.7425 94.8381C86.9485 94.4096 87.235 94.0758 87.6019 93.8366C87.9712 93.5952 88.4021 93.4744 88.8945 93.4744C89.1786 93.4744 89.4592 93.5218 89.7362 93.6165C90.0131 93.7112 90.2653 93.8651 90.4925 94.0781C90.7198 94.2888 90.9009 94.5682 91.0359 94.9162C91.1708 95.2642 91.2383 95.6927 91.2383 96.2017V96.5568H87.0337V95.8324H90.386C90.386 95.5246 90.3245 95.25 90.2013 95.0085C90.0806 94.767 89.9078 94.5765 89.6829 94.4368C89.4603 94.2971 89.1976 94.2273 88.8945 94.2273C88.5607 94.2273 88.2719 94.3101 88.0281 94.4759C87.7866 94.6392 87.6007 94.8523 87.4705 95.1151C87.3403 95.3778 87.2752 95.6596 87.2752 95.9602V96.4432C87.2752 96.8551 87.3462 97.2043 87.4883 97.4908C87.6327 97.7749 87.8327 97.9915 88.0884 98.1406C88.3441 98.2874 88.6412 98.3608 88.9798 98.3608C89.1999 98.3608 89.3988 98.33 89.5763 98.2685C89.7563 98.2045 89.9113 98.1098 90.0415 97.9844C90.1718 97.8565 90.2724 97.6979 90.3434 97.5085L91.1531 97.7358C91.0678 98.0104 90.9246 98.2519 90.7234 98.4602C90.5221 98.6662 90.2736 98.8272 89.9776 98.9432C89.6817 99.0568 89.3491 99.1136 88.9798 99.1136ZM99.4165 93.5455C99.3739 93.1856 99.2011 92.9062 98.8981 92.7074C98.5951 92.5085 98.2234 92.4091 97.783 92.4091C97.4611 92.4091 97.1793 92.4612 96.9379 92.5653C96.6987 92.6695 96.5117 92.8127 96.3768 92.995C96.2442 93.1773 96.1779 93.3845 96.1779 93.6165C96.1779 93.8106 96.2241 93.9775 96.3164 94.1172C96.4111 94.2545 96.5318 94.3693 96.6786 94.4616C96.8254 94.5516 96.9793 94.6262 97.1403 94.6854C97.3013 94.7422 97.4492 94.7884 97.5842 94.8239L98.3228 95.0227C98.5122 95.0724 98.7229 95.1411 98.9549 95.2287C99.1893 95.3163 99.413 95.4358 99.6261 95.5874C99.8415 95.7365 100.019 95.9283 100.159 96.1626C100.298 96.397 100.368 96.6847 100.368 97.0256C100.368 97.4186 100.265 97.7737 100.059 98.0909C99.8557 98.4081 99.5574 98.6603 99.1644 98.8473C98.7738 99.0343 98.2991 99.1278 97.7404 99.1278C97.2196 99.1278 96.7686 99.0438 96.3874 98.8757C96.0086 98.7076 95.7103 98.4732 95.4925 98.1726C95.2771 97.8719 95.1552 97.5227 95.1268 97.125H96.0359C96.0595 97.3996 96.1519 97.6269 96.3129 97.8068C96.4762 97.9844 96.6822 98.117 96.9308 98.2045C97.1817 98.2898 97.4516 98.3324 97.7404 98.3324C98.0766 98.3324 98.3784 98.2779 98.646 98.169C98.9135 98.0578 99.1254 97.9039 99.2816 97.7074C99.4379 97.5085 99.516 97.2765 99.516 97.0114C99.516 96.7699 99.4485 96.5734 99.3136 96.4219C99.1786 96.2704 99.0011 96.1473 98.7809 96.0526C98.5607 95.9579 98.3228 95.875 98.0671 95.804L97.1722 95.5483C96.604 95.3849 96.1542 95.1518 95.8228 94.8487C95.4914 94.5457 95.3256 94.1491 95.3256 93.6591C95.3256 93.2519 95.4357 92.8968 95.6559 92.5938C95.8784 92.2884 96.1767 92.0516 96.5508 91.8835C96.9272 91.7131 97.3474 91.6278 97.8114 91.6278C98.2802 91.6278 98.6969 91.7119 99.0614 91.88C99.426 92.0457 99.7148 92.273 99.9279 92.5618C100.143 92.8506 100.257 93.1785 100.269 93.5455H99.4165ZM104.075 93.5455V94.2557H101.248V93.5455H104.075ZM102.072 92.2386H102.91V97.4375C102.91 97.6742 102.944 97.8518 103.013 97.9702C103.084 98.0862 103.174 98.1643 103.283 98.2045C103.394 98.2424 103.511 98.2614 103.634 98.2614C103.727 98.2614 103.802 98.2566 103.862 98.2472C103.921 98.2353 103.968 98.2259 104.004 98.2188L104.174 98.9716C104.117 98.9929 104.038 99.0142 103.936 99.0355C103.834 99.0592 103.705 99.071 103.549 99.071C103.312 99.071 103.08 99.0201 102.853 98.9183C102.628 98.8165 102.441 98.6615 102.292 98.4531C102.145 98.2448 102.072 97.982 102.072 97.6648V92.2386ZM106.941 99.1278C106.595 99.1278 106.281 99.0627 105.999 98.9325C105.718 98.8 105.494 98.6094 105.328 98.3608C105.163 98.1098 105.08 97.8068 105.08 97.4517C105.08 97.1392 105.141 96.8859 105.264 96.6918C105.387 96.4953 105.552 96.3414 105.758 96.2301C105.964 96.1188 106.191 96.036 106.44 95.9815C106.691 95.9247 106.943 95.8797 107.196 95.8466C107.528 95.804 107.796 95.772 108.002 95.7507C108.211 95.727 108.362 95.688 108.457 95.6335C108.554 95.5791 108.602 95.4844 108.602 95.3494V95.321C108.602 94.9706 108.507 94.6984 108.315 94.5043C108.125 94.3101 107.838 94.2131 107.452 94.2131C107.052 94.2131 106.738 94.3007 106.511 94.4759C106.284 94.651 106.124 94.8381 106.031 95.0369L105.236 94.7528C105.378 94.4214 105.567 94.1634 105.804 93.9787C106.043 93.7917 106.304 93.6615 106.585 93.5881C106.869 93.5123 107.149 93.4744 107.423 93.4744C107.599 93.4744 107.8 93.4957 108.027 93.5384C108.257 93.5786 108.478 93.6626 108.691 93.7905C108.907 93.9183 109.085 94.1113 109.227 94.3693C109.369 94.6274 109.441 94.973 109.441 95.4062V99H108.602V98.2614H108.56C108.503 98.3797 108.408 98.5064 108.276 98.6413C108.143 98.7763 107.967 98.8911 107.747 98.9858C107.526 99.0805 107.258 99.1278 106.941 99.1278ZM107.068 98.375C107.4 98.375 107.679 98.3099 107.906 98.1797C108.136 98.0495 108.309 97.8814 108.425 97.6754C108.543 97.4695 108.602 97.2528 108.602 97.0256V96.2585C108.567 96.3011 108.489 96.3402 108.368 96.3757C108.25 96.4089 108.112 96.4384 107.956 96.4645C107.802 96.4882 107.652 96.5095 107.505 96.5284C107.361 96.545 107.244 96.5592 107.154 96.571C106.936 96.5994 106.732 96.6456 106.543 96.7095C106.356 96.7711 106.204 96.8646 106.088 96.9901C105.975 97.1132 105.918 97.2812 105.918 97.4943C105.918 97.7855 106.026 98.0057 106.241 98.1548C106.459 98.3016 106.735 98.375 107.068 98.375ZM113.342 93.5455V94.2557H110.516V93.5455H113.342ZM111.339 92.2386H112.178V97.4375C112.178 97.6742 112.212 97.8518 112.281 97.9702C112.352 98.0862 112.442 98.1643 112.55 98.2045C112.662 98.2424 112.779 98.2614 112.902 98.2614C112.994 98.2614 113.07 98.2566 113.129 98.2472C113.188 98.2353 113.236 98.2259 113.271 98.2188L113.442 98.9716C113.385 98.9929 113.306 99.0142 113.204 99.0355C113.102 99.0592 112.973 99.071 112.817 99.071C112.58 99.071 112.348 99.0201 112.121 98.9183C111.896 98.8165 111.709 98.6615 111.56 98.4531C111.413 98.2448 111.339 97.982 111.339 97.6648V92.2386ZM116.831 99.1136C116.306 99.1136 115.852 98.9976 115.471 98.7656C115.092 98.5312 114.8 98.2045 114.594 97.7855C114.391 97.3641 114.289 96.8741 114.289 96.3153C114.289 95.7566 114.391 95.2642 114.594 94.8381C114.8 94.4096 115.087 94.0758 115.453 93.8366C115.823 93.5952 116.254 93.4744 116.746 93.4744C117.03 93.4744 117.311 93.5218 117.588 93.6165C117.865 93.7112 118.117 93.8651 118.344 94.0781C118.571 94.2888 118.752 94.5682 118.887 94.9162C119.022 95.2642 119.09 95.6927 119.09 96.2017V96.5568H114.885V95.8324H118.238C118.238 95.5246 118.176 95.25 118.053 95.0085C117.932 94.767 117.759 94.5765 117.534 94.4368C117.312 94.2971 117.049 94.2273 116.746 94.2273C116.412 94.2273 116.123 94.3101 115.88 94.4759C115.638 94.6392 115.452 94.8523 115.322 95.1151C115.192 95.3778 115.127 95.6596 115.127 95.9602V96.4432C115.127 96.8551 115.198 97.2043 115.34 97.4908C115.484 97.7749 115.684 97.9915 115.94 98.1406C116.196 98.2874 116.493 98.3608 116.831 98.3608C117.051 98.3608 117.25 98.33 117.428 98.2685C117.608 98.2045 117.763 98.1098 117.893 97.9844C118.023 97.8565 118.124 97.6979 118.195 97.5085L119.005 97.7358C118.919 98.0104 118.776 98.2519 118.575 98.4602C118.374 98.6662 118.125 98.8272 117.829 98.9432C117.533 99.0568 117.201 99.1136 116.831 99.1136Z" fill="black"/>
<path d="M86.6407 36.1095L86.6407 35.1095L85.6407 35.1095L85.6407 36.1095L86.6407 36.1095ZM85.9336 72.64C86.3242 73.0306 86.9573 73.0306 87.3479 72.64L93.7118 66.2761C94.1023 65.8856 94.1023 65.2524 93.7118 64.8619C93.3213 64.4713 92.6881 64.4713 92.2976 64.8619L86.6408 70.5187L80.9839 64.8619C80.5934 64.4713 79.9602 64.4713 79.5697 64.8619C79.1792 65.2524 79.1792 65.8856 79.5697 66.2761L85.9336 72.64ZM130.061 35.1095L86.6407 35.1095L86.6407 37.1095L130.061 37.1095L130.061 35.1095ZM85.6407 36.1095L85.6407 71.9329L87.6408 71.9329L87.6407 36.1095L85.6407 36.1095Z" fill="black"/>
<path d="M326.323 37.3325L327.323 37.3325L327.323 36.3325L326.323 36.3325L326.323 37.3325ZM272.293 36.6254C271.902 37.0159 271.902 37.6491 272.293 38.0396L278.657 44.4036C279.047 44.7941 279.681 44.7941 280.071 44.4036C280.462 44.0131 280.462 43.3799 280.071 42.9894L274.414 37.3325L280.071 31.6757C280.462 31.2851 280.462 30.652 280.071 30.2615C279.681 29.8709 279.047 29.8709 278.657 30.2615L272.293 36.6254ZM327.323 72.3279L327.323 37.3325L325.323 37.3325L325.323 72.3279L327.323 72.3279ZM326.323 36.3325L299.662 36.3325L299.662 38.3325L326.323 38.3325L326.323 36.3325ZM299.662 36.3325L273 36.3325L273 38.3325L299.662 38.3325L299.662 36.3325Z" fill="black"/>
<path d="M182.716 152.207C183.107 151.817 183.107 151.183 182.716 150.793L176.352 144.429C175.962 144.038 175.328 144.038 174.938 144.429C174.547 144.819 174.547 145.453 174.938 145.843L180.595 151.5L174.938 157.157C174.547 157.547 174.547 158.181 174.938 158.571C175.328 158.962 175.962 158.962 176.352 158.571L182.716 152.207ZM153.991 152.5H182.009V150.5H153.991V152.5Z" fill="black"/>
<path d="M287.725 151.707C288.115 151.317 288.115 150.683 287.725 150.293L281.361 143.929C280.97 143.538 280.337 143.538 279.947 143.929C279.556 144.319 279.556 144.953 279.947 145.343L285.604 151L279.947 156.657C279.556 157.047 279.556 157.681 279.947 158.071C280.337 158.462 280.97 158.462 281.361 158.071L287.725 151.707ZM259 152H287.018V150H259V152Z" fill="black"/>
<path d="M86.2929 129.743C86.6834 130.133 87.3166 130.133 87.7071 129.743L94.0711 123.379C94.4616 122.988 94.4616 122.355 94.0711 121.965C93.6805 121.574 93.0474 121.574 92.6569 121.965L87 127.622L81.3431 121.965C80.9526 121.574 80.3195 121.574 79.9289 121.965C79.5384 122.355 79.5384 122.988 79.9289 123.379L86.2929 129.743ZM86 110V129.036H88V110H86Z" fill="black"/>
<path d="M327.707 109.293C327.317 108.902 326.683 108.902 326.293 109.293L319.929 115.657C319.538 116.047 319.538 116.681 319.929 117.071C320.319 117.462 320.953 117.462 321.343 117.071L327 111.414L332.657 117.071C333.047 117.462 333.681 117.462 334.071 117.071C334.462 116.681 334.462 116.047 334.071 115.657L327.707 109.293ZM328 129.036V110H326V129.036H328Z" fill="black"/>
</svg>
