<svg width="534" height="300" viewBox="0 0 534 300" fill="none" xmlns="http://www.w3.org/2000/svg">
<rect width="533.333" height="300" fill="white"/>
<rect x="36.5" y="35.5" width="423.667" height="237" fill="white" stroke="black" stroke-width="3"/>
<path d="M102.179 88V85.7841L107.357 80.9901C107.797 80.5639 108.166 80.1804 108.464 79.8395C108.768 79.4986 108.997 79.1648 109.153 78.8381C109.31 78.5066 109.388 78.1491 109.388 77.7656C109.388 77.3395 109.291 76.9725 109.097 76.6648C108.902 76.3523 108.637 76.1132 108.301 75.9474C107.965 75.777 107.584 75.6918 107.158 75.6918C106.713 75.6918 106.324 75.7817 105.993 75.9616C105.661 76.1416 105.406 76.3996 105.226 76.7358C105.046 77.072 104.956 77.4721 104.956 77.9361H102.037C102.037 76.9844 102.252 76.1581 102.683 75.4574C103.114 74.7566 103.718 74.2145 104.494 73.831C105.271 73.4474 106.166 73.2557 107.179 73.2557C108.221 73.2557 109.127 73.4403 109.899 73.8097C110.676 74.1742 111.279 74.6809 111.71 75.3295C112.141 75.9782 112.357 76.7216 112.357 77.5597C112.357 78.1089 112.248 78.651 112.03 79.1861C111.817 79.7211 111.436 80.3153 110.886 80.9688C110.337 81.6174 109.563 82.3963 108.564 83.3054L106.44 85.3864V85.4858H112.548V88H102.179Z" fill="black"/>
<path d="M323.555 87.1989C322.495 87.1989 321.55 87.0166 320.722 86.652C319.898 86.2827 319.247 85.776 318.768 85.1321C318.295 84.4834 318.051 83.7353 318.037 82.8878H321.134C321.152 83.2429 321.268 83.5554 321.482 83.8253C321.699 84.0904 321.988 84.2964 322.348 84.4432C322.708 84.59 323.113 84.6634 323.562 84.6634C324.031 84.6634 324.446 84.5805 324.805 84.4148C325.165 84.2491 325.447 84.0194 325.651 83.7259C325.854 83.4323 325.956 83.0937 325.956 82.7102C325.956 82.322 325.847 81.9787 325.629 81.6804C325.416 81.3774 325.108 81.1406 324.706 80.9702C324.308 80.7997 323.835 80.7145 323.286 80.7145H321.929V78.456H323.286C323.75 78.456 324.159 78.3755 324.514 78.2145C324.874 78.0535 325.153 77.831 325.352 77.5469C325.551 77.258 325.651 76.9219 325.651 76.5384C325.651 76.1738 325.563 75.8542 325.388 75.5795C325.217 75.3002 324.976 75.0824 324.663 74.9261C324.356 74.7699 323.996 74.6918 323.584 74.6918C323.167 74.6918 322.786 74.7675 322.44 74.919C322.095 75.0658 321.818 75.2765 321.609 75.5511C321.401 75.8258 321.29 76.1477 321.276 76.517H318.328C318.342 75.679 318.581 74.9403 319.045 74.3011C319.509 73.6619 320.134 73.1624 320.92 72.8026C321.711 72.438 322.604 72.2557 323.598 72.2557C324.602 72.2557 325.48 72.438 326.233 72.8026C326.986 73.1671 327.571 73.6596 327.987 74.2798C328.409 74.8954 328.617 75.5866 328.612 76.3537C328.617 77.1681 328.364 77.8475 327.852 78.392C327.346 78.9366 326.685 79.2822 325.871 79.429V79.5426C326.941 79.6799 327.755 80.0516 328.314 80.6577C328.877 81.259 329.157 82.0118 329.152 82.9162C329.157 83.7448 328.918 84.4811 328.435 85.125C327.956 85.7689 327.296 86.2756 326.453 86.6449C325.61 87.0142 324.644 87.1989 323.555 87.1989Z" fill="black"/>
<path d="M38 53.5H462" stroke="black" stroke-width="3"/>
<circle cx="448.5" cy="44.5" r="4.5" fill="black"/>
<circle cx="436.5" cy="44.5" r="4.5" fill="black"/>
<circle cx="424.5" cy="44.5" r="4.5" fill="black"/>
<path d="M62.8807 138V130.727H63.7614V137.219H67.142V138H62.8807ZM70.679 138.114C70.1534 138.114 69.7 137.998 69.3189 137.766C68.9401 137.531 68.6477 137.205 68.4418 136.786C68.2382 136.364 68.1364 135.874 68.1364 135.315C68.1364 134.757 68.2382 134.264 68.4418 133.838C68.6477 133.41 68.9342 133.076 69.3011 132.837C69.6705 132.595 70.1013 132.474 70.5938 132.474C70.8778 132.474 71.1584 132.522 71.4354 132.616C71.7124 132.711 71.9645 132.865 72.1918 133.078C72.419 133.289 72.6001 133.568 72.7351 133.916C72.87 134.264 72.9375 134.693 72.9375 135.202V135.557H68.733V134.832H72.0852C72.0852 134.525 72.0237 134.25 71.9006 134.009C71.7798 133.767 71.607 133.576 71.3821 133.437C71.1596 133.297 70.8968 133.227 70.5938 133.227C70.2599 133.227 69.9711 133.31 69.7273 133.476C69.4858 133.639 69.3 133.852 69.1697 134.115C69.0395 134.378 68.9744 134.66 68.9744 134.96V135.443C68.9744 135.855 69.0455 136.204 69.1875 136.491C69.3319 136.775 69.532 136.991 69.7876 137.141C70.0433 137.287 70.3404 137.361 70.679 137.361C70.8991 137.361 71.098 137.33 71.2756 137.268C71.4555 137.205 71.6106 137.11 71.7408 136.984C71.871 136.857 71.9716 136.698 72.0426 136.509L72.8523 136.736C72.767 137.01 72.6238 137.252 72.4226 137.46C72.2214 137.666 71.9728 137.827 71.6768 137.943C71.3809 138.057 71.0483 138.114 70.679 138.114ZM75.0504 134.719V138H74.2124V132.545H75.022V133.398H75.093C75.2209 133.121 75.415 132.898 75.6754 132.73C75.9358 132.56 76.272 132.474 76.6839 132.474C77.0533 132.474 77.3764 132.55 77.6534 132.702C77.9304 132.851 78.1458 133.078 78.2997 133.384C78.4536 133.687 78.5305 134.07 78.5305 134.534V138H77.6925V134.591C77.6925 134.162 77.5812 133.829 77.3587 133.589C77.1361 133.348 76.8307 133.227 76.4425 133.227C76.175 133.227 75.9358 133.285 75.7251 133.401C75.5168 133.517 75.3523 133.687 75.2315 133.909C75.1108 134.132 75.0504 134.402 75.0504 134.719ZM82.2637 140.159C81.8588 140.159 81.5108 140.107 81.2196 140.003C80.9284 139.901 80.6858 139.766 80.4917 139.598C80.2999 139.432 80.1472 139.255 80.0336 139.065L80.7012 138.597C80.7769 138.696 80.8728 138.81 80.9888 138.938C81.1048 139.068 81.2634 139.18 81.4647 139.275C81.6683 139.372 81.9346 139.42 82.2637 139.42C82.704 139.42 83.0674 139.314 83.3539 139.101C83.6403 138.888 83.7836 138.554 83.7836 138.099V136.991H83.7125C83.651 137.091 83.5634 137.214 83.4498 137.361C83.3385 137.505 83.1775 137.634 82.9668 137.748C82.7585 137.859 82.4767 137.915 82.1216 137.915C81.6813 137.915 81.2859 137.811 80.9355 137.602C80.5875 137.394 80.3117 137.091 80.1081 136.693C79.9069 136.295 79.8063 135.812 79.8063 135.244C79.8063 134.686 79.9045 134.199 80.101 133.785C80.2975 133.368 80.571 133.046 80.9213 132.819C81.2717 132.589 81.6766 132.474 82.1358 132.474C82.4909 132.474 82.7727 132.534 82.981 132.652C83.1917 132.768 83.3527 132.901 83.464 133.05C83.5776 133.196 83.6652 133.317 83.7267 133.412H83.812V132.545H84.6216V138.156C84.6216 138.625 84.5151 139.006 84.302 139.3C84.0913 139.596 83.8072 139.812 83.4498 139.95C83.0946 140.089 82.6993 140.159 82.2637 140.159ZM82.2353 137.162C82.5714 137.162 82.8555 137.085 83.0875 136.931C83.3195 136.777 83.4959 136.556 83.6167 136.267C83.7374 135.978 83.7978 135.633 83.7978 135.23C83.7978 134.837 83.7386 134.49 83.6202 134.19C83.5018 133.889 83.3266 133.653 83.0946 133.483C82.8626 133.312 82.5762 133.227 82.2353 133.227C81.8801 133.227 81.5842 133.317 81.3475 133.497C81.1131 133.677 80.9367 133.919 80.8184 134.222C80.7024 134.525 80.6444 134.861 80.6444 135.23C80.6444 135.609 80.7035 135.944 80.8219 136.235C80.9426 136.524 81.1202 136.751 81.3546 136.917C81.5913 137.08 81.8849 137.162 82.2353 137.162ZM88.5279 132.545V133.256H85.7012V132.545H88.5279ZM86.525 131.239H87.3631V136.438C87.3631 136.674 87.3974 136.852 87.4661 136.97C87.5371 137.086 87.6271 137.164 87.736 137.205C87.8472 137.242 87.9644 137.261 88.0875 137.261C88.1799 137.261 88.2556 137.257 88.3148 137.247C88.374 137.235 88.4213 137.226 88.4569 137.219L88.6273 137.972C88.5705 137.993 88.4912 138.014 88.3894 138.036C88.2876 138.059 88.1586 138.071 88.0023 138.071C87.7656 138.071 87.5336 138.02 87.3063 137.918C87.0814 137.817 86.8944 137.661 86.7452 137.453C86.5984 137.245 86.525 136.982 86.525 136.665V131.239ZM90.7438 134.719V138H89.9057V130.727H90.7438V133.398H90.8148C90.9426 133.116 91.1344 132.892 91.3901 132.727C91.6481 132.558 91.9914 132.474 92.4199 132.474C92.7916 132.474 93.1171 132.549 93.3965 132.698C93.6758 132.845 93.8925 133.071 94.0463 133.376C94.2026 133.679 94.2807 134.065 94.2807 134.534V138H93.4426V134.591C93.4426 134.158 93.3302 133.823 93.1053 133.586C92.8828 133.347 92.5738 133.227 92.1784 133.227C91.9038 133.227 91.6576 133.285 91.4398 133.401C91.2244 133.517 91.0539 133.687 90.9284 133.909C90.8053 134.132 90.7438 134.402 90.7438 134.719ZM96.4247 138.057C96.2495 138.057 96.0992 137.994 95.9737 137.869C95.8482 137.743 95.7855 137.593 95.7855 137.418C95.7855 137.242 95.8482 137.092 95.9737 136.967C96.0992 136.841 96.2495 136.778 96.4247 136.778C96.5999 136.778 96.7502 136.841 96.8757 136.967C97.0012 137.092 97.0639 137.242 97.0639 137.418C97.0639 137.534 97.0343 137.64 96.9751 137.737C96.9183 137.834 96.8414 137.912 96.7443 137.972C96.6496 138.028 96.5431 138.057 96.4247 138.057ZM96.4247 134.009C96.2495 134.009 96.0992 133.946 95.9737 133.82C95.8482 133.695 95.7855 133.545 95.7855 133.369C95.7855 133.194 95.8482 133.044 95.9737 132.918C96.0992 132.793 96.2495 132.73 96.4247 132.73C96.5999 132.73 96.7502 132.793 96.8757 132.918C97.0012 133.044 97.0639 133.194 97.0639 133.369C97.0639 133.485 97.0343 133.592 96.9751 133.689C96.9183 133.786 96.8414 133.864 96.7443 133.923C96.6496 133.98 96.5431 134.009 96.4247 134.009ZM99.1786 138.057C99.0034 138.057 98.8531 137.994 98.7276 137.869C98.6022 137.743 98.5394 137.593 98.5394 137.418C98.5394 137.242 98.6022 137.092 98.7276 136.967C98.8531 136.841 99.0034 136.778 99.1786 136.778C99.3538 136.778 99.5041 136.841 99.6296 136.967C99.7551 137.092 99.8178 137.242 99.8178 137.418C99.8178 137.534 99.7882 137.64 99.729 137.737C99.6722 137.834 99.5953 137.912 99.4982 137.972C99.4035 138.028 99.297 138.057 99.1786 138.057ZM99.1786 134.009C99.0034 134.009 98.8531 133.946 98.7276 133.82C98.6022 133.695 98.5394 133.545 98.5394 133.369C98.5394 133.194 98.6022 133.044 98.7276 132.918C98.8531 132.793 99.0034 132.73 99.1786 132.73C99.3538 132.73 99.5041 132.793 99.6296 132.918C99.7551 133.044 99.8178 133.194 99.8178 133.369C99.8178 133.485 99.7882 133.592 99.729 133.689C99.6722 133.786 99.5953 133.864 99.4982 133.923C99.4035 133.98 99.297 134.009 99.1786 134.009ZM101.435 138V130.727H105.796V131.509H102.316V133.966H105.469V134.747H102.316V138H101.435ZM107.191 138V132.545H108.029V138H107.191ZM107.617 131.636C107.454 131.636 107.313 131.581 107.194 131.469C107.078 131.358 107.02 131.224 107.02 131.068C107.02 130.912 107.078 130.778 107.194 130.667C107.313 130.556 107.454 130.5 107.617 130.5C107.78 130.5 107.92 130.556 108.036 130.667C108.154 130.778 108.214 130.912 108.214 131.068C108.214 131.224 108.154 131.358 108.036 131.469C107.92 131.581 107.78 131.636 107.617 131.636ZM110.402 130.727V138H109.564V130.727H110.402ZM112.775 130.727V138H111.937V130.727H112.775ZM114.424 138V130.727H116.881C117.452 130.727 117.918 130.83 118.28 131.036C118.645 131.24 118.915 131.516 119.09 131.864C119.265 132.212 119.353 132.6 119.353 133.028C119.353 133.457 119.265 133.846 119.09 134.197C118.917 134.547 118.65 134.826 118.287 135.035C117.925 135.241 117.461 135.344 116.895 135.344H115.134V134.562H116.867C117.257 134.562 117.571 134.495 117.808 134.36C118.045 134.225 118.216 134.043 118.323 133.813C118.432 133.581 118.486 133.32 118.486 133.028C118.486 132.737 118.432 132.477 118.323 132.247C118.216 132.018 118.043 131.838 117.804 131.707C117.565 131.575 117.248 131.509 116.853 131.509H115.304V138H114.424ZM122.815 138.114C122.323 138.114 121.891 137.996 121.519 137.762C121.15 137.528 120.861 137.2 120.652 136.778C120.446 136.357 120.343 135.865 120.343 135.301C120.343 134.733 120.446 134.237 120.652 133.813C120.861 133.389 121.15 133.06 121.519 132.826C121.891 132.592 122.323 132.474 122.815 132.474C123.307 132.474 123.738 132.592 124.108 132.826C124.479 133.06 124.768 133.389 124.974 133.813C125.182 134.237 125.287 134.733 125.287 135.301C125.287 135.865 125.182 136.357 124.974 136.778C124.768 137.2 124.479 137.528 124.108 137.762C123.738 137.996 123.307 138.114 122.815 138.114ZM122.815 137.361C123.189 137.361 123.497 137.265 123.738 137.073C123.98 136.881 124.158 136.629 124.275 136.317C124.391 136.004 124.449 135.666 124.449 135.301C124.449 134.937 124.391 134.597 124.275 134.282C124.158 133.967 123.98 133.713 123.738 133.518C123.497 133.324 123.189 133.227 122.815 133.227C122.441 133.227 122.133 133.324 121.892 133.518C121.65 133.713 121.471 133.967 121.355 134.282C121.239 134.597 121.181 134.937 121.181 135.301C121.181 135.666 121.239 136.004 121.355 136.317C121.471 136.629 121.65 136.881 121.892 137.073C122.133 137.265 122.441 137.361 122.815 137.361ZM126.566 138V132.545H127.376V133.369H127.432C127.532 133.099 127.712 132.88 127.972 132.712C128.233 132.544 128.526 132.46 128.853 132.46C128.914 132.46 128.991 132.461 129.084 132.464C129.176 132.466 129.246 132.47 129.293 132.474V133.327C129.265 133.32 129.2 133.309 129.098 133.295C128.998 133.278 128.893 133.27 128.782 133.27C128.517 133.27 128.28 133.326 128.072 133.437C127.866 133.546 127.702 133.697 127.581 133.891C127.463 134.083 127.404 134.302 127.404 134.548V138H126.566ZM133.001 132.545V133.256H130.174V132.545H133.001ZM130.998 131.239H131.836V136.438C131.836 136.674 131.87 136.852 131.939 136.97C132.01 137.086 132.1 137.164 132.209 137.205C132.32 137.242 132.437 137.261 132.56 137.261C132.653 137.261 132.728 137.257 132.787 137.247C132.847 137.235 132.894 137.226 132.93 137.219L133.1 137.972C133.043 137.993 132.964 138.014 132.862 138.036C132.76 138.059 132.631 138.071 132.475 138.071C132.238 138.071 132.006 138.02 131.779 137.918C131.554 137.817 131.367 137.661 131.218 137.453C131.071 137.245 130.998 136.982 130.998 136.665V131.239ZM134.261 138V132.545H135.099V138H134.261ZM134.687 131.636C134.524 131.636 134.383 131.581 134.265 131.469C134.149 131.358 134.091 131.224 134.091 131.068C134.091 130.912 134.149 130.778 134.265 130.667C134.383 130.556 134.524 130.5 134.687 130.5C134.851 130.5 134.99 130.556 135.106 130.667C135.225 130.778 135.284 130.912 135.284 131.068C135.284 131.224 135.225 131.358 135.106 131.469C134.99 131.581 134.851 131.636 134.687 131.636ZM138.85 138.114C138.358 138.114 137.926 137.996 137.554 137.762C137.185 137.528 136.896 137.2 136.688 136.778C136.482 136.357 136.379 135.865 136.379 135.301C136.379 134.733 136.482 134.237 136.688 133.813C136.896 133.389 137.185 133.06 137.554 132.826C137.926 132.592 138.358 132.474 138.85 132.474C139.343 132.474 139.773 132.592 140.143 132.826C140.514 133.06 140.803 133.389 141.009 133.813C141.218 134.237 141.322 134.733 141.322 135.301C141.322 135.865 141.218 136.357 141.009 136.778C140.803 137.2 140.514 137.528 140.143 137.762C139.773 137.996 139.343 138.114 138.85 138.114ZM138.85 137.361C139.224 137.361 139.532 137.265 139.773 137.073C140.015 136.881 140.194 136.629 140.31 136.317C140.426 136.004 140.484 135.666 140.484 135.301C140.484 134.937 140.426 134.597 140.31 134.282C140.194 133.967 140.015 133.713 139.773 133.518C139.532 133.324 139.224 133.227 138.85 133.227C138.476 133.227 138.168 133.324 137.927 133.518C137.685 133.713 137.507 133.967 137.391 134.282C137.275 134.597 137.217 134.937 137.217 135.301C137.217 135.666 137.275 136.004 137.391 136.317C137.507 136.629 137.685 136.881 137.927 137.073C138.168 137.265 138.476 137.361 138.85 137.361ZM143.439 134.719V138H142.601V132.545H143.411V133.398H143.482C143.61 133.121 143.804 132.898 144.064 132.73C144.325 132.56 144.661 132.474 145.073 132.474C145.442 132.474 145.765 132.55 146.042 132.702C146.319 132.851 146.535 133.078 146.688 133.384C146.842 133.687 146.919 134.07 146.919 134.534V138H146.081V134.591C146.081 134.162 145.97 133.829 145.747 133.589C145.525 133.348 145.219 133.227 144.831 133.227C144.564 133.227 144.325 133.285 144.114 133.401C143.905 133.517 143.741 133.687 143.62 133.909C143.499 134.132 143.439 134.402 143.439 134.719ZM148.749 134.932C148.749 134.037 148.865 133.214 149.097 132.464C149.331 131.711 149.665 131.018 150.098 130.386H150.837C150.667 130.621 150.507 130.91 150.358 131.253C150.211 131.594 150.082 131.969 149.971 132.379C149.859 132.786 149.772 133.207 149.708 133.643C149.646 134.078 149.615 134.508 149.615 134.932C149.615 135.495 149.67 136.067 149.779 136.647C149.888 137.227 150.034 137.766 150.219 138.263C150.404 138.76 150.61 139.165 150.837 139.477H150.098C149.665 138.845 149.331 138.154 149.097 137.403C148.865 136.651 148.749 135.827 148.749 134.932ZM152.059 138V137.361L154.46 134.733C154.742 134.425 154.974 134.158 155.156 133.93C155.338 133.701 155.473 133.485 155.561 133.284C155.651 133.08 155.696 132.867 155.696 132.645C155.696 132.389 155.634 132.168 155.511 131.981C155.39 131.794 155.225 131.649 155.014 131.548C154.803 131.446 154.567 131.395 154.304 131.395C154.024 131.395 153.781 131.453 153.572 131.569C153.366 131.683 153.206 131.842 153.093 132.048C152.982 132.254 152.926 132.496 152.926 132.773H152.088C152.088 132.347 152.186 131.973 152.383 131.651C152.579 131.329 152.847 131.078 153.185 130.898C153.526 130.718 153.908 130.628 154.332 130.628C154.758 130.628 155.136 130.718 155.465 130.898C155.794 131.078 156.052 131.32 156.239 131.626C156.426 131.931 156.52 132.271 156.52 132.645C156.52 132.912 156.471 133.174 156.374 133.43C156.279 133.683 156.114 133.966 155.877 134.278C155.643 134.589 155.317 134.967 154.9 135.415L153.267 137.162V137.219H156.648V138H152.059ZM159.918 134.932C159.918 135.827 159.801 136.651 159.567 137.403C159.335 138.154 159.002 138.845 158.569 139.477H157.83C158.001 139.243 158.159 138.954 158.306 138.611C158.455 138.27 158.585 137.896 158.697 137.489C158.808 137.079 158.894 136.656 158.956 136.221C159.02 135.783 159.052 135.353 159.052 134.932C159.052 134.368 158.997 133.797 158.888 133.217C158.779 132.637 158.633 132.098 158.448 131.601C158.263 131.104 158.057 130.699 157.83 130.386H158.569C159.002 131.018 159.335 131.711 159.567 132.464C159.801 133.214 159.918 134.037 159.918 134.932Z" fill="black"/>
<path d="M267.881 138V130.727H268.761V137.219H272.142V138H267.881ZM275.679 138.114C275.153 138.114 274.7 137.998 274.319 137.766C273.94 137.531 273.648 137.205 273.442 136.786C273.238 136.364 273.136 135.874 273.136 135.315C273.136 134.757 273.238 134.264 273.442 133.838C273.648 133.41 273.934 133.076 274.301 132.837C274.67 132.595 275.101 132.474 275.594 132.474C275.878 132.474 276.158 132.522 276.435 132.616C276.712 132.711 276.964 132.865 277.192 133.078C277.419 133.289 277.6 133.568 277.735 133.916C277.87 134.264 277.938 134.693 277.938 135.202V135.557H273.733V134.832H277.085C277.085 134.525 277.024 134.25 276.901 134.009C276.78 133.767 276.607 133.576 276.382 133.437C276.16 133.297 275.897 133.227 275.594 133.227C275.26 133.227 274.971 133.31 274.727 133.476C274.486 133.639 274.3 133.852 274.17 134.115C274.04 134.378 273.974 134.66 273.974 134.96V135.443C273.974 135.855 274.045 136.204 274.188 136.491C274.332 136.775 274.532 136.991 274.788 137.141C275.043 137.287 275.34 137.361 275.679 137.361C275.899 137.361 276.098 137.33 276.276 137.268C276.455 137.205 276.611 137.11 276.741 136.984C276.871 136.857 276.972 136.698 277.043 136.509L277.852 136.736C277.767 137.01 277.624 137.252 277.423 137.46C277.221 137.666 276.973 137.827 276.677 137.943C276.381 138.057 276.048 138.114 275.679 138.114ZM280.05 134.719V138H279.212V132.545H280.022V133.398H280.093C280.221 133.121 280.415 132.898 280.675 132.73C280.936 132.56 281.272 132.474 281.684 132.474C282.053 132.474 282.376 132.55 282.653 132.702C282.93 132.851 283.146 133.078 283.3 133.384C283.454 133.687 283.531 134.07 283.531 134.534V138H282.692V134.591C282.692 134.162 282.581 133.829 282.359 133.589C282.136 133.348 281.831 133.227 281.442 133.227C281.175 133.227 280.936 133.285 280.725 133.401C280.517 133.517 280.352 133.687 280.232 133.909C280.111 134.132 280.05 134.402 280.05 134.719ZM287.264 140.159C286.859 140.159 286.511 140.107 286.22 140.003C285.928 139.901 285.686 139.766 285.492 139.598C285.3 139.432 285.147 139.255 285.034 139.065L285.701 138.597C285.777 138.696 285.873 138.81 285.989 138.938C286.105 139.068 286.263 139.18 286.465 139.275C286.668 139.372 286.935 139.42 287.264 139.42C287.704 139.42 288.067 139.314 288.354 139.101C288.64 138.888 288.784 138.554 288.784 138.099V136.991H288.713C288.651 137.091 288.563 137.214 288.45 137.361C288.338 137.505 288.177 137.634 287.967 137.748C287.758 137.859 287.477 137.915 287.122 137.915C286.681 137.915 286.286 137.811 285.936 137.602C285.588 137.394 285.312 137.091 285.108 136.693C284.907 136.295 284.806 135.812 284.806 135.244C284.806 134.686 284.905 134.199 285.101 133.785C285.298 133.368 285.571 133.046 285.921 132.819C286.272 132.589 286.677 132.474 287.136 132.474C287.491 132.474 287.773 132.534 287.981 132.652C288.192 132.768 288.353 132.901 288.464 133.05C288.578 133.196 288.665 133.317 288.727 133.412H288.812V132.545H289.622V138.156C289.622 138.625 289.515 139.006 289.302 139.3C289.091 139.596 288.807 139.812 288.45 139.95C288.095 140.089 287.699 140.159 287.264 140.159ZM287.235 137.162C287.571 137.162 287.856 137.085 288.088 136.931C288.32 136.777 288.496 136.556 288.617 136.267C288.737 135.978 288.798 135.633 288.798 135.23C288.798 134.837 288.739 134.49 288.62 134.19C288.502 133.889 288.327 133.653 288.095 133.483C287.863 133.312 287.576 133.227 287.235 133.227C286.88 133.227 286.584 133.317 286.347 133.497C286.113 133.677 285.937 133.919 285.818 134.222C285.702 134.525 285.644 134.861 285.644 135.23C285.644 135.609 285.704 135.944 285.822 136.235C285.943 136.524 286.12 136.751 286.355 136.917C286.591 137.08 286.885 137.162 287.235 137.162ZM293.528 132.545V133.256H290.701V132.545H293.528ZM291.525 131.239H292.363V136.438C292.363 136.674 292.397 136.852 292.466 136.97C292.537 137.086 292.627 137.164 292.736 137.205C292.847 137.242 292.964 137.261 293.088 137.261C293.18 137.261 293.256 137.257 293.315 137.247C293.374 137.235 293.421 137.226 293.457 137.219L293.627 137.972C293.57 137.993 293.491 138.014 293.389 138.036C293.288 138.059 293.159 138.071 293.002 138.071C292.766 138.071 292.534 138.02 292.306 137.918C292.081 137.817 291.894 137.661 291.745 137.453C291.598 137.245 291.525 136.982 291.525 136.665V131.239ZM295.744 134.719V138H294.906V130.727H295.744V133.398H295.815C295.943 133.116 296.134 132.892 296.39 132.727C296.648 132.558 296.991 132.474 297.42 132.474C297.792 132.474 298.117 132.549 298.396 132.698C298.676 132.845 298.892 133.071 299.046 133.376C299.203 133.679 299.281 134.065 299.281 134.534V138H298.443V134.591C298.443 134.158 298.33 133.823 298.105 133.586C297.883 133.347 297.574 133.227 297.178 133.227C296.904 133.227 296.658 133.285 296.44 133.401C296.224 133.517 296.054 133.687 295.928 133.909C295.805 134.132 295.744 134.402 295.744 134.719ZM301.425 138.057C301.25 138.057 301.099 137.994 300.974 137.869C300.848 137.743 300.786 137.593 300.786 137.418C300.786 137.242 300.848 137.092 300.974 136.967C301.099 136.841 301.25 136.778 301.425 136.778C301.6 136.778 301.75 136.841 301.876 136.967C302.001 137.092 302.064 137.242 302.064 137.418C302.064 137.534 302.034 137.64 301.975 137.737C301.918 137.834 301.841 137.912 301.744 137.972C301.65 138.028 301.543 138.057 301.425 138.057ZM301.425 134.009C301.25 134.009 301.099 133.946 300.974 133.82C300.848 133.695 300.786 133.545 300.786 133.369C300.786 133.194 300.848 133.044 300.974 132.918C301.099 132.793 301.25 132.73 301.425 132.73C301.6 132.73 301.75 132.793 301.876 132.918C302.001 133.044 302.064 133.194 302.064 133.369C302.064 133.485 302.034 133.592 301.975 133.689C301.918 133.786 301.841 133.864 301.744 133.923C301.65 133.98 301.543 134.009 301.425 134.009ZM304.179 138.057C304.003 138.057 303.853 137.994 303.728 137.869C303.602 137.743 303.539 137.593 303.539 137.418C303.539 137.242 303.602 137.092 303.728 136.967C303.853 136.841 304.003 136.778 304.179 136.778C304.354 136.778 304.504 136.841 304.63 136.967C304.755 137.092 304.818 137.242 304.818 137.418C304.818 137.534 304.788 137.64 304.729 137.737C304.672 137.834 304.595 137.912 304.498 137.972C304.404 138.028 304.297 138.057 304.179 138.057ZM304.179 134.009C304.003 134.009 303.853 133.946 303.728 133.82C303.602 133.695 303.539 133.545 303.539 133.369C303.539 133.194 303.602 133.044 303.728 132.918C303.853 132.793 304.003 132.73 304.179 132.73C304.354 132.73 304.504 132.793 304.63 132.918C304.755 133.044 304.818 133.194 304.818 133.369C304.818 133.485 304.788 133.592 304.729 133.689C304.672 133.786 304.595 133.864 304.498 133.923C304.404 133.98 304.297 134.009 304.179 134.009ZM306.435 138V130.727H310.796V131.509H307.316V133.966H310.469V134.747H307.316V138H306.435ZM312.191 138V132.545H313.029V138H312.191ZM312.617 131.636C312.454 131.636 312.313 131.581 312.194 131.469C312.078 131.358 312.02 131.224 312.02 131.068C312.02 130.912 312.078 130.778 312.194 130.667C312.313 130.556 312.454 130.5 312.617 130.5C312.78 130.5 312.92 130.556 313.036 130.667C313.154 130.778 313.214 130.912 313.214 131.068C313.214 131.224 313.154 131.358 313.036 131.469C312.92 131.581 312.78 131.636 312.617 131.636ZM315.402 130.727V138H314.564V130.727H315.402ZM317.775 130.727V138H316.937V130.727H317.775ZM319.424 138V130.727H321.881C322.452 130.727 322.918 130.83 323.28 131.036C323.645 131.24 323.915 131.516 324.09 131.864C324.265 132.212 324.353 132.6 324.353 133.028C324.353 133.457 324.265 133.846 324.09 134.197C323.917 134.547 323.65 134.826 323.287 135.035C322.925 135.241 322.461 135.344 321.895 135.344H320.134V134.562H321.867C322.257 134.562 322.571 134.495 322.808 134.36C323.045 134.225 323.216 134.043 323.323 133.813C323.432 133.581 323.486 133.32 323.486 133.028C323.486 132.737 323.432 132.477 323.323 132.247C323.216 132.018 323.043 131.838 322.804 131.707C322.565 131.575 322.248 131.509 321.853 131.509H320.304V138H319.424ZM327.815 138.114C327.323 138.114 326.891 137.996 326.519 137.762C326.15 137.528 325.861 137.2 325.652 136.778C325.446 136.357 325.343 135.865 325.343 135.301C325.343 134.733 325.446 134.237 325.652 133.813C325.861 133.389 326.15 133.06 326.519 132.826C326.891 132.592 327.323 132.474 327.815 132.474C328.307 132.474 328.738 132.592 329.108 132.826C329.479 133.06 329.768 133.389 329.974 133.813C330.182 134.237 330.287 134.733 330.287 135.301C330.287 135.865 330.182 136.357 329.974 136.778C329.768 137.2 329.479 137.528 329.108 137.762C328.738 137.996 328.307 138.114 327.815 138.114ZM327.815 137.361C328.189 137.361 328.497 137.265 328.738 137.073C328.98 136.881 329.158 136.629 329.275 136.317C329.391 136.004 329.449 135.666 329.449 135.301C329.449 134.937 329.391 134.597 329.275 134.282C329.158 133.967 328.98 133.713 328.738 133.518C328.497 133.324 328.189 133.227 327.815 133.227C327.441 133.227 327.133 133.324 326.892 133.518C326.65 133.713 326.471 133.967 326.355 134.282C326.239 134.597 326.181 134.937 326.181 135.301C326.181 135.666 326.239 136.004 326.355 136.317C326.471 136.629 326.65 136.881 326.892 137.073C327.133 137.265 327.441 137.361 327.815 137.361ZM331.566 138V132.545H332.376V133.369H332.432C332.532 133.099 332.712 132.88 332.972 132.712C333.233 132.544 333.526 132.46 333.853 132.46C333.914 132.46 333.991 132.461 334.084 132.464C334.176 132.466 334.246 132.47 334.293 132.474V133.327C334.265 133.32 334.2 133.309 334.098 133.295C333.998 133.278 333.893 133.27 333.782 133.27C333.517 133.27 333.28 133.326 333.072 133.437C332.866 133.546 332.702 133.697 332.581 133.891C332.463 134.083 332.404 134.302 332.404 134.548V138H331.566ZM338.001 132.545V133.256H335.174V132.545H338.001ZM335.998 131.239H336.836V136.438C336.836 136.674 336.87 136.852 336.939 136.97C337.01 137.086 337.1 137.164 337.209 137.205C337.32 137.242 337.437 137.261 337.56 137.261C337.653 137.261 337.728 137.257 337.787 137.247C337.847 137.235 337.894 137.226 337.93 137.219L338.1 137.972C338.043 137.993 337.964 138.014 337.862 138.036C337.76 138.059 337.631 138.071 337.475 138.071C337.238 138.071 337.006 138.02 336.779 137.918C336.554 137.817 336.367 137.661 336.218 137.453C336.071 137.245 335.998 136.982 335.998 136.665V131.239ZM339.261 138V132.545H340.099V138H339.261ZM339.687 131.636C339.524 131.636 339.383 131.581 339.265 131.469C339.149 131.358 339.091 131.224 339.091 131.068C339.091 130.912 339.149 130.778 339.265 130.667C339.383 130.556 339.524 130.5 339.687 130.5C339.851 130.5 339.99 130.556 340.106 130.667C340.225 130.778 340.284 130.912 340.284 131.068C340.284 131.224 340.225 131.358 340.106 131.469C339.99 131.581 339.851 131.636 339.687 131.636ZM343.85 138.114C343.358 138.114 342.926 137.996 342.554 137.762C342.185 137.528 341.896 137.2 341.688 136.778C341.482 136.357 341.379 135.865 341.379 135.301C341.379 134.733 341.482 134.237 341.688 133.813C341.896 133.389 342.185 133.06 342.554 132.826C342.926 132.592 343.358 132.474 343.85 132.474C344.343 132.474 344.773 132.592 345.143 132.826C345.514 133.06 345.803 133.389 346.009 133.813C346.218 134.237 346.322 134.733 346.322 135.301C346.322 135.865 346.218 136.357 346.009 136.778C345.803 137.2 345.514 137.528 345.143 137.762C344.773 137.996 344.343 138.114 343.85 138.114ZM343.85 137.361C344.224 137.361 344.532 137.265 344.773 137.073C345.015 136.881 345.194 136.629 345.31 136.317C345.426 136.004 345.484 135.666 345.484 135.301C345.484 134.937 345.426 134.597 345.31 134.282C345.194 133.967 345.015 133.713 344.773 133.518C344.532 133.324 344.224 133.227 343.85 133.227C343.476 133.227 343.168 133.324 342.927 133.518C342.685 133.713 342.507 133.967 342.391 134.282C342.275 134.597 342.217 134.937 342.217 135.301C342.217 135.666 342.275 136.004 342.391 136.317C342.507 136.629 342.685 136.881 342.927 137.073C343.168 137.265 343.476 137.361 343.85 137.361ZM348.439 134.719V138H347.601V132.545H348.411V133.398H348.482C348.61 133.121 348.804 132.898 349.064 132.73C349.325 132.56 349.661 132.474 350.073 132.474C350.442 132.474 350.765 132.55 351.042 132.702C351.319 132.851 351.535 133.078 351.688 133.384C351.842 133.687 351.919 134.07 351.919 134.534V138H351.081V134.591C351.081 134.162 350.97 133.829 350.747 133.589C350.525 133.348 350.219 133.227 349.831 133.227C349.564 133.227 349.325 133.285 349.114 133.401C348.905 133.517 348.741 133.687 348.62 133.909C348.499 134.132 348.439 134.402 348.439 134.719ZM353.749 134.932C353.749 134.037 353.865 133.214 354.097 132.464C354.331 131.711 354.665 131.018 355.098 130.386H355.837C355.667 130.621 355.507 130.91 355.358 131.253C355.211 131.594 355.082 131.969 354.971 132.379C354.859 132.786 354.772 133.207 354.708 133.643C354.646 134.078 354.615 134.508 354.615 134.932C354.615 135.495 354.67 136.067 354.779 136.647C354.888 137.227 355.034 137.766 355.219 138.263C355.404 138.76 355.61 139.165 355.837 139.477H355.098C354.665 138.845 354.331 138.154 354.097 137.403C353.865 136.651 353.749 135.827 353.749 134.932ZM359.517 138.099C359.048 138.099 358.63 138.019 358.263 137.858C357.899 137.697 357.609 137.473 357.393 137.187C357.18 136.898 357.064 136.563 357.045 136.182H357.94C357.959 136.416 358.04 136.619 358.182 136.789C358.324 136.957 358.51 137.087 358.739 137.18C358.969 137.272 359.223 137.318 359.503 137.318C359.815 137.318 360.092 137.264 360.334 137.155C360.575 137.046 360.765 136.894 360.902 136.7C361.039 136.506 361.108 136.281 361.108 136.026C361.108 135.758 361.041 135.522 360.909 135.319C360.776 135.113 360.582 134.952 360.327 134.836C360.071 134.72 359.758 134.662 359.389 134.662H358.807V133.881H359.389C359.678 133.881 359.931 133.829 360.149 133.724C360.369 133.62 360.541 133.473 360.664 133.284C360.789 133.095 360.852 132.872 360.852 132.616C360.852 132.37 360.798 132.156 360.689 131.974C360.58 131.791 360.426 131.649 360.227 131.548C360.031 131.446 359.799 131.395 359.531 131.395C359.28 131.395 359.043 131.441 358.821 131.533C358.601 131.623 358.421 131.755 358.281 131.928C358.141 132.098 358.066 132.304 358.054 132.545H357.202C357.216 132.164 357.331 131.83 357.546 131.544C357.761 131.255 358.043 131.03 358.391 130.869C358.742 130.708 359.126 130.628 359.545 130.628C359.995 130.628 360.381 130.719 360.703 130.901C361.025 131.081 361.272 131.319 361.445 131.615C361.618 131.911 361.704 132.231 361.704 132.574C361.704 132.983 361.597 133.333 361.381 133.621C361.168 133.91 360.878 134.11 360.511 134.222V134.278C360.97 134.354 361.329 134.549 361.587 134.864C361.845 135.177 361.974 135.564 361.974 136.026C361.974 136.421 361.867 136.776 361.651 137.091C361.438 137.403 361.147 137.65 360.778 137.83C360.408 138.009 359.988 138.099 359.517 138.099ZM365.231 134.932C365.231 135.827 365.113 136.651 364.879 137.403C364.647 138.154 364.314 138.845 363.881 139.477H363.143C363.313 139.243 363.472 138.954 363.618 138.611C363.768 138.27 363.898 137.896 364.009 137.489C364.12 137.079 364.207 136.656 364.268 136.221C364.332 135.783 364.364 135.353 364.364 134.932C364.364 134.368 364.31 133.797 364.201 133.217C364.092 132.637 363.945 132.098 363.76 131.601C363.576 131.104 363.37 130.699 363.143 130.386H363.881C364.314 131.018 364.647 131.711 364.879 132.464C365.113 133.214 365.231 134.037 365.231 134.932Z" fill="black"/>
<line x1="38" y1="108.5" x2="462" y2="108.5" stroke="black" stroke-width="3"/>
<path d="M39 123L49 128.774V117.226L39 123ZM182 123L172 117.226V128.774L182 123ZM48 124H173V122H48V124Z" fill="black"/>
<path d="M182 123L192 128.774V117.226L182 123ZM459 123L449 117.226V128.774L459 123ZM191 124H450V122H191V124Z" fill="black"/>
<path d="M472 105L477.774 95L466.226 95L472 105ZM472 57L466.226 67L477.774 67L472 57ZM473 96L473 66L471 66L471 96L473 96Z" fill="black"/>
<path d="M486.891 73.3281C486.891 72.8698 486.982 72.457 487.164 72.0898C487.346 71.7227 487.596 71.4284 487.914 71.207C488.232 70.9857 488.594 70.8646 489 70.8438V71.7813C488.638 71.8177 488.339 71.9818 488.102 72.2734C487.867 72.5677 487.75 72.9193 487.75 73.3281C487.75 73.6563 487.827 73.9479 487.98 74.2031C488.134 74.4609 488.345 74.6628 488.613 74.8086C488.884 74.957 489.19 75.0313 489.531 75.0313C489.88 75.0313 490.191 74.9544 490.465 74.8008C490.741 74.6497 490.958 74.4414 491.117 74.1758C491.276 73.9102 491.357 73.6068 491.359 73.2656C491.362 73.0208 491.324 72.7695 491.246 72.5117C491.171 72.2539 491.073 72.0417 490.953 71.875L491.063 70.9688L495 71.4531V75.6094H494.141V72.2656L491.781 71.9844V72.0313C491.911 72.1953 492.02 72.401 492.105 72.6484C492.191 72.8958 492.234 73.1536 492.234 73.4219C492.234 73.9115 492.117 74.3477 491.883 74.7305C491.651 75.1159 491.333 75.418 490.93 75.6367C490.526 75.8581 490.065 75.9687 489.547 75.9687C489.036 75.9687 488.581 75.8542 488.18 75.625C487.781 75.3984 487.466 75.0859 487.234 74.6875C487.005 74.2891 486.891 73.8359 486.891 73.3281ZM486.891 80.1299C486.891 79.5413 487.051 79.04 487.371 78.626C487.694 78.2119 488.161 77.8955 488.773 77.6768C489.388 77.458 490.13 77.3486 491 77.3486C491.865 77.3486 492.603 77.458 493.215 77.6768C493.829 77.8981 494.298 78.2158 494.621 78.6299C494.947 79.0465 495.109 79.5465 495.109 80.1299C495.109 80.7132 494.947 81.2119 494.621 81.626C494.298 82.0426 493.829 82.3604 493.215 82.5791C492.603 82.8005 491.865 82.9111 491 82.9111C490.13 82.9111 489.388 82.8018 488.773 82.583C488.161 82.3643 487.694 82.0479 487.371 81.6338C487.051 81.2197 486.891 80.7184 486.891 80.1299ZM487.75 80.1299C487.75 80.7132 488.031 81.1663 488.594 81.4893C489.156 81.8122 489.958 81.9736 491 81.9736C491.693 81.9736 492.283 81.8994 492.77 81.751C493.257 81.6051 493.628 81.3942 493.883 81.1182C494.138 80.8447 494.266 80.5153 494.266 80.1299C494.266 79.5518 493.98 79.0999 493.41 78.7744C492.842 78.4489 492.039 78.2861 491 78.2861C490.307 78.2861 489.719 78.359 489.234 78.5049C488.75 78.6507 488.382 78.8604 488.129 79.1338C487.876 79.4098 487.75 79.7419 487.75 80.1299ZM486.937 84.8037C486.937 84.611 487.007 84.4456 487.145 84.3076C487.283 84.1696 487.448 84.1006 487.641 84.1006C487.833 84.1006 487.999 84.1696 488.137 84.3076C488.275 84.4456 488.344 84.611 488.344 84.8037C488.344 84.9964 488.275 85.1618 488.137 85.2998C487.999 85.4378 487.833 85.5068 487.641 85.5068C487.513 85.5068 487.396 85.4743 487.289 85.4092C487.182 85.3467 487.096 85.262 487.031 85.1553C486.969 85.0511 486.937 84.9339 486.937 84.8037ZM486.891 89.4756C486.891 88.887 487.051 88.3857 487.371 87.9717C487.694 87.5576 488.161 87.2412 488.773 87.0225C489.388 86.8037 490.13 86.6943 491 86.6943C491.865 86.6943 492.603 86.8037 493.215 87.0225C493.829 87.2438 494.298 87.5615 494.621 87.9756C494.947 88.3923 495.109 88.8923 495.109 89.4756C495.109 90.0589 494.947 90.5576 494.621 90.9717C494.298 91.3883 493.829 91.7061 493.215 91.9248C492.603 92.1462 491.865 92.2568 491 92.2568C490.13 92.2568 489.388 92.1475 488.773 91.9287C488.161 91.71 487.694 91.3936 487.371 90.9795C487.051 90.5654 486.891 90.0641 486.891 89.4756ZM487.75 89.4756C487.75 90.0589 488.031 90.512 488.594 90.835C489.156 91.1579 489.958 91.3193 491 91.3193C491.693 91.3193 492.283 91.2451 492.77 91.0967C493.257 90.9508 493.628 90.7399 493.883 90.4639C494.138 90.1904 494.266 89.861 494.266 89.4756C494.266 88.8975 493.98 88.4456 493.41 88.1201C492.842 87.7946 492.039 87.6318 491 87.6318C490.307 87.6318 489.719 87.7048 489.234 87.8506C488.75 87.9964 488.382 88.2061 488.129 88.4795C487.876 88.7555 487.75 89.0876 487.75 89.4756Z" fill="black"/>
<path d="M182.5 53L182.5 108" stroke="black" stroke-width="3"/>
</svg>
