<svg width="534" height="300" viewBox="0 0 534 300" fill="none" xmlns="http://www.w3.org/2000/svg">
<rect width="533.333" height="300" fill="white"/>
<rect x="37.5" y="31.5" width="423.667" height="237" fill="white" stroke="black" stroke-width="3"/>
<path d="M216.574 78.9102H214.24C214.198 78.6083 214.111 78.3402 213.979 78.1058C213.848 77.8679 213.679 77.6655 213.473 77.4986C213.267 77.3317 213.029 77.2038 212.76 77.1151C212.493 77.0263 212.204 76.9819 211.891 76.9819C211.327 76.9819 210.835 77.1222 210.416 77.4027C209.997 77.6797 209.672 78.0845 209.441 78.6172C209.21 79.1463 209.095 79.7891 209.095 80.5455C209.095 81.3232 209.21 81.9766 209.441 82.5057C209.675 83.0348 210.002 83.4343 210.421 83.7042C210.84 83.9741 211.325 84.109 211.875 84.109C212.184 84.109 212.47 84.0682 212.733 83.9865C212.999 83.9048 213.235 83.7859 213.441 83.6296C213.647 83.4698 213.818 83.2763 213.953 83.049C214.091 82.8217 214.187 82.5625 214.24 82.2713L216.574 82.282C216.513 82.7827 216.362 83.2656 216.121 83.7308C215.883 84.1925 215.561 84.6062 215.157 84.9719C214.755 85.3342 214.276 85.6218 213.718 85.8349C213.164 86.0444 212.538 86.1491 211.838 86.1491C210.865 86.1491 209.995 85.929 209.228 85.4886C208.464 85.0483 207.861 84.4109 207.417 83.5763C206.977 82.7418 206.756 81.7315 206.756 80.5455C206.756 79.3558 206.98 78.3438 207.428 77.5092C207.875 76.6747 208.482 76.0391 209.249 75.6023C210.016 75.1619 210.879 74.9418 211.838 74.9418C212.47 74.9418 213.056 75.0305 213.596 75.2081C214.139 75.3857 214.62 75.6449 215.039 75.9858C215.458 76.3232 215.799 76.7369 216.062 77.2269C216.328 77.717 216.499 78.2781 216.574 78.9102ZM228.252 80.5455C228.252 81.7351 228.027 82.7472 227.576 83.5817C227.128 84.4162 226.518 85.0536 225.743 85.494C224.973 85.9308 224.106 86.1491 223.144 86.1491C222.175 86.1491 221.305 85.929 220.534 85.4886C219.763 85.0483 219.154 84.4109 218.707 83.5763C218.259 82.7418 218.036 81.7315 218.036 80.5455C218.036 79.3558 218.259 78.3438 218.707 77.5092C219.154 76.6747 219.763 76.0391 220.534 75.6023C221.305 75.1619 222.175 74.9418 223.144 74.9418C224.106 74.9418 224.973 75.1619 225.743 75.6023C226.518 76.0391 227.128 76.6747 227.576 77.5092C228.027 78.3438 228.252 79.3558 228.252 80.5455ZM225.914 80.5455C225.914 79.7749 225.798 79.125 225.568 78.5959C225.34 78.0668 225.019 77.6655 224.604 77.392C224.188 77.1186 223.702 76.9819 223.144 76.9819C222.586 76.9819 222.1 77.1186 221.684 77.392C221.269 77.6655 220.946 78.0668 220.715 78.5959C220.488 79.125 220.374 79.7749 220.374 80.5455C220.374 81.3161 220.488 81.9659 220.715 82.495C220.946 83.0241 221.269 83.4254 221.684 83.6989C222.1 83.9723 222.586 84.109 223.144 84.109C223.702 84.109 224.188 83.9723 224.604 83.6989C225.019 83.4254 225.34 83.0241 225.568 82.495C225.798 81.9659 225.914 81.3161 225.914 80.5455ZM239.085 75.0909V86H237.093L232.347 79.1339H232.267V86H229.961V75.0909H231.985L236.694 81.9517H236.79V75.0909H239.085ZM240.576 76.9925V75.0909H249.535V76.9925H246.195V86H243.915V76.9925H240.576ZM251.558 86H249.086L252.852 75.0909H255.825L259.585 86H257.114L254.381 77.5838H254.296L251.558 86ZM251.403 81.712H257.242V83.5124H251.403V81.712ZM263.205 75.0909V86H260.898V75.0909H263.205ZM274.227 75.0909V86H272.235L267.489 79.1339H267.409V86H265.102V75.0909H267.127L271.835 81.9517H271.931V75.0909H274.227ZM276.133 86V75.0909H283.484V76.9925H278.439V79.592H283.105V81.4936H278.439V84.0984H283.505V86H276.133ZM285.317 86V75.0909H289.621C290.445 75.0909 291.148 75.2383 291.731 75.533C292.317 75.8242 292.762 76.2379 293.068 76.7741C293.377 77.3068 293.531 77.9336 293.531 78.6545C293.531 79.3789 293.375 80.0021 293.062 80.5241C292.75 81.0426 292.297 81.4403 291.704 81.7173C291.115 81.9943 290.401 82.1328 289.563 82.1328H286.681V80.2791H289.19C289.63 80.2791 289.996 80.2187 290.287 80.098C290.578 79.9773 290.795 79.7962 290.937 79.5547C291.083 79.3132 291.155 79.0131 291.155 78.6545C291.155 78.2923 291.083 77.9869 290.937 77.7383C290.795 77.4897 290.577 77.3015 290.282 77.1737C289.991 77.0423 289.623 76.9766 289.179 76.9766H287.624V86H285.317ZM291.209 81.0355L293.92 86H291.374L288.721 81.0355H291.209Z" fill="black"/>
<path d="M38 53.5H462" stroke="black" stroke-width="3"/>
<circle cx="448.5" cy="42.5" r="4.5" fill="black"/>
<circle cx="436.5" cy="42.5" r="4.5" fill="black"/>
<circle cx="424.5" cy="42.5" r="4.5" fill="black"/>
<path d="M221.969 137V129H222.938V136.141H226.656V137H221.969ZM230.547 137.125C229.969 137.125 229.47 136.997 229.051 136.742C228.634 136.484 228.313 136.125 228.086 135.664C227.862 135.201 227.75 134.661 227.75 134.047C227.75 133.432 227.862 132.891 228.086 132.422C228.313 131.951 228.628 131.583 229.031 131.32C229.438 131.055 229.911 130.922 230.453 130.922C230.766 130.922 231.074 130.974 231.379 131.078C231.684 131.182 231.961 131.352 232.211 131.586C232.461 131.818 232.66 132.125 232.809 132.508C232.957 132.891 233.031 133.362 233.031 133.922V134.312H228.406V133.516H232.094C232.094 133.177 232.026 132.875 231.891 132.609C231.758 132.344 231.568 132.134 231.32 131.98C231.076 131.827 230.786 131.75 230.453 131.75C230.086 131.75 229.768 131.841 229.5 132.023C229.234 132.203 229.03 132.437 228.887 132.727C228.743 133.016 228.672 133.326 228.672 133.656V134.188C228.672 134.641 228.75 135.025 228.906 135.34C229.065 135.652 229.285 135.891 229.566 136.055C229.848 136.216 230.174 136.297 230.547 136.297C230.789 136.297 231.008 136.263 231.203 136.195C231.401 136.125 231.572 136.021 231.715 135.883C231.858 135.742 231.969 135.568 232.047 135.359L232.938 135.609C232.844 135.911 232.686 136.177 232.465 136.406C232.243 136.633 231.97 136.81 231.645 136.937C231.319 137.063 230.953 137.125 230.547 137.125ZM235.355 133.391V137H234.434V131H235.324V131.937H235.402C235.543 131.633 235.757 131.388 236.043 131.203C236.329 131.016 236.699 130.922 237.152 130.922C237.559 130.922 237.914 131.005 238.219 131.172C238.523 131.336 238.76 131.586 238.93 131.922C239.099 132.255 239.184 132.677 239.184 133.188V137H238.262V133.25C238.262 132.779 238.139 132.411 237.895 132.148C237.65 131.883 237.314 131.75 236.887 131.75C236.592 131.75 236.329 131.814 236.098 131.941C235.868 132.069 235.688 132.255 235.555 132.5C235.422 132.745 235.355 133.042 235.355 133.391ZM243.29 139.375C242.845 139.375 242.462 139.318 242.142 139.203C241.821 139.091 241.554 138.943 241.341 138.758C241.13 138.576 240.962 138.38 240.837 138.172L241.571 137.656C241.655 137.766 241.76 137.891 241.888 138.031C242.015 138.174 242.19 138.298 242.411 138.402C242.635 138.509 242.928 138.562 243.29 138.562C243.774 138.562 244.174 138.445 244.489 138.211C244.804 137.977 244.962 137.609 244.962 137.109V135.891H244.884C244.816 136 244.72 136.135 244.595 136.297C244.472 136.456 244.295 136.598 244.063 136.723C243.834 136.845 243.524 136.906 243.134 136.906C242.649 136.906 242.215 136.792 241.829 136.563C241.446 136.333 241.143 136 240.919 135.562C240.698 135.125 240.587 134.594 240.587 133.969C240.587 133.354 240.695 132.819 240.911 132.363C241.127 131.905 241.428 131.551 241.813 131.301C242.199 131.048 242.644 130.922 243.149 130.922C243.54 130.922 243.85 130.987 244.079 131.117C244.311 131.245 244.488 131.391 244.61 131.555C244.735 131.716 244.832 131.849 244.899 131.953H244.993V131H245.884V137.172C245.884 137.688 245.767 138.107 245.532 138.43C245.3 138.755 244.988 138.993 244.595 139.145C244.204 139.298 243.769 139.375 243.29 139.375ZM243.259 136.078C243.629 136.078 243.941 135.993 244.196 135.824C244.451 135.655 244.646 135.411 244.778 135.094C244.911 134.776 244.978 134.396 244.978 133.953C244.978 133.521 244.912 133.139 244.782 132.809C244.652 132.478 244.459 132.219 244.204 132.031C243.949 131.844 243.634 131.75 243.259 131.75C242.868 131.75 242.543 131.849 242.282 132.047C242.024 132.245 241.83 132.51 241.7 132.844C241.573 133.177 241.509 133.547 241.509 133.953C241.509 134.37 241.574 134.738 241.704 135.059C241.837 135.376 242.032 135.626 242.29 135.809C242.55 135.988 242.873 136.078 243.259 136.078ZM250.181 131V131.781H247.071V131H250.181ZM247.978 129.562H248.899V135.281C248.899 135.542 248.937 135.737 249.013 135.867C249.091 135.995 249.19 136.081 249.31 136.125C249.432 136.167 249.561 136.187 249.696 136.187C249.798 136.187 249.881 136.182 249.946 136.172C250.011 136.159 250.063 136.148 250.103 136.141L250.29 136.969C250.228 136.992 250.14 137.016 250.028 137.039C249.916 137.065 249.774 137.078 249.603 137.078C249.342 137.078 249.087 137.022 248.837 136.91C248.59 136.798 248.384 136.628 248.22 136.398C248.058 136.169 247.978 135.88 247.978 135.531V129.562ZM252.618 133.391V137H251.696V129H252.618V131.937H252.696C252.837 131.628 253.048 131.382 253.329 131.199C253.613 131.014 253.991 130.922 254.462 130.922C254.871 130.922 255.229 131.004 255.536 131.168C255.843 131.329 256.082 131.578 256.251 131.914C256.423 132.247 256.509 132.672 256.509 133.188V137H255.587V133.25C255.587 132.773 255.463 132.405 255.216 132.145C254.971 131.882 254.631 131.75 254.196 131.75C253.894 131.75 253.623 131.814 253.384 131.941C253.147 132.069 252.959 132.255 252.821 132.5C252.686 132.745 252.618 133.042 252.618 133.391ZM258.867 137.063C258.674 137.063 258.509 136.993 258.371 136.855C258.233 136.717 258.164 136.552 258.164 136.359C258.164 136.167 258.233 136.001 258.371 135.863C258.509 135.725 258.674 135.656 258.867 135.656C259.06 135.656 259.225 135.725 259.363 135.863C259.501 136.001 259.57 136.167 259.57 136.359C259.57 136.487 259.538 136.604 259.473 136.711C259.41 136.818 259.326 136.904 259.219 136.969C259.115 137.031 258.997 137.063 258.867 137.063ZM258.867 132.609C258.674 132.609 258.509 132.54 258.371 132.402C258.233 132.264 258.164 132.099 258.164 131.906C258.164 131.714 258.233 131.548 258.371 131.41C258.509 131.272 258.674 131.203 258.867 131.203C259.06 131.203 259.225 131.272 259.363 131.41C259.501 131.548 259.57 131.714 259.57 131.906C259.57 132.034 259.538 132.151 259.473 132.258C259.41 132.365 259.326 132.451 259.219 132.516C259.115 132.578 258.997 132.609 258.867 132.609ZM261.896 137.063C261.704 137.063 261.538 136.993 261.4 136.855C261.262 136.717 261.193 136.552 261.193 136.359C261.193 136.167 261.262 136.001 261.4 135.863C261.538 135.725 261.704 135.656 261.896 135.656C262.089 135.656 262.255 135.725 262.393 135.863C262.531 136.001 262.6 136.167 262.6 136.359C262.6 136.487 262.567 136.604 262.502 136.711C262.439 136.818 262.355 136.904 262.248 136.969C262.144 137.031 262.027 137.063 261.896 137.063ZM261.896 132.609C261.704 132.609 261.538 132.54 261.4 132.402C261.262 132.264 261.193 132.099 261.193 131.906C261.193 131.714 261.262 131.548 261.4 131.41C261.538 131.272 261.704 131.203 261.896 131.203C262.089 131.203 262.255 131.272 262.393 131.41C262.531 131.548 262.6 131.714 262.6 131.906C262.6 132.034 262.567 132.151 262.502 132.258C262.439 132.365 262.355 132.451 262.248 132.516C262.144 132.578 262.027 132.609 261.896 132.609ZM264.379 137V129H269.176V129.859H265.348V132.562H268.816V133.422H265.348V137H264.379ZM270.71 137V131H271.632V137H270.71ZM271.179 130C270.999 130 270.844 129.939 270.714 129.816C270.586 129.694 270.522 129.547 270.522 129.375C270.522 129.203 270.586 129.056 270.714 128.934C270.844 128.811 270.999 128.75 271.179 128.75C271.358 128.75 271.512 128.811 271.64 128.934C271.77 129.056 271.835 129.203 271.835 129.375C271.835 129.547 271.77 129.694 271.64 129.816C271.512 129.939 271.358 130 271.179 130ZM274.242 129V137H273.32V129H274.242ZM276.853 129V137H275.931V129H276.853Z" fill="black"/>
<line x1="38" y1="108.5" x2="462" y2="108.5" stroke="black" stroke-width="3"/>
<path d="M39 123L49 128.774V117.226L39 123ZM459 123L449 117.226V128.774L459 123ZM48 124H450V122H48V124Z" fill="black"/>
<path d="M472 105L477.774 95L466.226 95L472 105ZM472 57L466.226 67L477.774 67L472 57ZM473 96L473 66L471 66L471 96L473 96Z" fill="black"/>
<path d="M486.891 73.3281C486.891 72.8698 486.982 72.457 487.164 72.0898C487.346 71.7227 487.596 71.4284 487.914 71.207C488.232 70.9857 488.594 70.8646 489 70.8438V71.7813C488.638 71.8177 488.339 71.9818 488.102 72.2734C487.867 72.5677 487.75 72.9193 487.75 73.3281C487.75 73.6563 487.827 73.9479 487.98 74.2031C488.134 74.4609 488.345 74.6628 488.613 74.8086C488.884 74.957 489.19 75.0313 489.531 75.0313C489.88 75.0313 490.191 74.9544 490.465 74.8008C490.741 74.6497 490.958 74.4414 491.117 74.1758C491.276 73.9102 491.357 73.6068 491.359 73.2656C491.362 73.0208 491.324 72.7695 491.246 72.5117C491.171 72.2539 491.073 72.0417 490.953 71.875L491.063 70.9688L495 71.4531V75.6094H494.141V72.2656L491.781 71.9844V72.0313C491.911 72.1953 492.02 72.401 492.105 72.6484C492.191 72.8958 492.234 73.1536 492.234 73.4219C492.234 73.9115 492.117 74.3477 491.883 74.7305C491.651 75.1159 491.333 75.418 490.93 75.6367C490.526 75.8581 490.065 75.9687 489.547 75.9687C489.036 75.9687 488.581 75.8542 488.18 75.625C487.781 75.3984 487.466 75.0859 487.234 74.6875C487.005 74.2891 486.891 73.8359 486.891 73.3281ZM486.891 80.1299C486.891 79.5413 487.051 79.04 487.371 78.626C487.694 78.2119 488.161 77.8955 488.773 77.6768C489.388 77.458 490.13 77.3486 491 77.3486C491.865 77.3486 492.603 77.458 493.215 77.6768C493.829 77.8981 494.298 78.2158 494.621 78.6299C494.947 79.0465 495.109 79.5465 495.109 80.1299C495.109 80.7132 494.947 81.2119 494.621 81.626C494.298 82.0426 493.829 82.3604 493.215 82.5791C492.603 82.8005 491.865 82.9111 491 82.9111C490.13 82.9111 489.388 82.8018 488.773 82.583C488.161 82.3643 487.694 82.0479 487.371 81.6338C487.051 81.2197 486.891 80.7184 486.891 80.1299ZM487.75 80.1299C487.75 80.7132 488.031 81.1663 488.594 81.4893C489.156 81.8122 489.958 81.9736 491 81.9736C491.693 81.9736 492.283 81.8994 492.77 81.751C493.257 81.6051 493.628 81.3942 493.883 81.1182C494.138 80.8447 494.266 80.5153 494.266 80.1299C494.266 79.5518 493.98 79.0999 493.41 78.7744C492.842 78.4489 492.039 78.2861 491 78.2861C490.307 78.2861 489.719 78.359 489.234 78.5049C488.75 78.6507 488.382 78.8604 488.129 79.1338C487.876 79.4098 487.75 79.7419 487.75 80.1299ZM486.937 84.8037C486.937 84.611 487.007 84.4456 487.145 84.3076C487.283 84.1696 487.448 84.1006 487.641 84.1006C487.833 84.1006 487.999 84.1696 488.137 84.3076C488.275 84.4456 488.344 84.611 488.344 84.8037C488.344 84.9964 488.275 85.1618 488.137 85.2998C487.999 85.4378 487.833 85.5068 487.641 85.5068C487.513 85.5068 487.396 85.4743 487.289 85.4092C487.182 85.3467 487.096 85.262 487.031 85.1553C486.969 85.0511 486.937 84.9339 486.937 84.8037ZM486.891 89.4756C486.891 88.887 487.051 88.3857 487.371 87.9717C487.694 87.5576 488.161 87.2412 488.773 87.0225C489.388 86.8037 490.13 86.6943 491 86.6943C491.865 86.6943 492.603 86.8037 493.215 87.0225C493.829 87.2438 494.298 87.5615 494.621 87.9756C494.947 88.3923 495.109 88.8923 495.109 89.4756C495.109 90.0589 494.947 90.5576 494.621 90.9717C494.298 91.3883 493.829 91.7061 493.215 91.9248C492.603 92.1462 491.865 92.2568 491 92.2568C490.13 92.2568 489.388 92.1475 488.773 91.9287C488.161 91.71 487.694 91.3936 487.371 90.9795C487.051 90.5654 486.891 90.0641 486.891 89.4756ZM487.75 89.4756C487.75 90.0589 488.031 90.512 488.594 90.835C489.156 91.1579 489.958 91.3193 491 91.3193C491.693 91.3193 492.283 91.2451 492.77 91.0967C493.257 90.9508 493.628 90.7399 493.883 90.4639C494.138 90.1904 494.266 89.861 494.266 89.4756C494.266 88.8975 493.98 88.4456 493.41 88.1201C492.842 87.7946 492.039 87.6318 491 87.6318C490.307 87.6318 489.719 87.7048 489.234 87.8506C488.75 87.9964 488.382 88.2061 488.129 88.4795C487.876 88.7555 487.75 89.0876 487.75 89.4756Z" fill="black"/>
</svg>
